<svg version="1.1" id="Layer_1" xmlns="http://www.w3.org/2000/svg" xmlns:xlink="http://www.w3.org/1999/xlink" x="0px" y="0px"
	 width="100%" viewBox="0 0 1024 1024" enable-background="new 0 0 1024 1024" xml:space="preserve">
<path fill="none" opacity="1.000000" stroke="none" 
	d="
M568.000000,1025.000000 
	C378.666656,1025.000000 189.833328,1025.000000 1.000000,1025.000000 
	C1.000000,683.666687 1.000000,342.333344 1.000000,1.000000 
	C342.333344,1.000000 683.666687,1.000000 1025.000000,1.000000 
	C1025.000000,342.333344 1025.000000,683.666687 1025.000000,1025.000000 
	C872.833313,1025.000000 720.666687,1025.000000 568.000000,1025.000000 
M685.500000,865.950012 
	C694.498108,865.947815 703.529907,866.427734 712.484436,865.802246 
	C720.756287,865.224426 728.091309,862.017578 733.721130,855.314392 
	C739.305237,848.665466 740.203064,840.294617 742.897156,832.595642 
	C745.256104,825.854553 747.089050,818.929443 749.156494,812.086182 
	C751.092285,805.679077 753.098206,799.292175 754.949402,792.860718 
	C756.839539,786.293762 758.447449,779.643982 760.416321,773.101868 
	C763.110718,764.148865 766.122131,755.291504 768.826294,746.341370 
	C771.723206,736.753357 774.332642,727.078430 777.231506,717.491028 
	C780.012573,708.293274 783.113037,699.191833 785.873230,689.988037 
	C788.858521,680.033386 791.519653,669.981628 794.494141,660.023560 
	C797.203064,650.954651 800.145752,641.955505 802.979126,632.923645 
	C805.078918,626.230225 807.181458,619.537598 809.258301,612.836975 
	C810.529602,608.734863 812.092773,604.683899 812.906189,600.490051 
	C813.739014,596.196106 815.379578,594.791199 819.419922,596.138977 
	C821.657471,596.885437 823.899292,597.619446 826.134033,598.374268 
	C837.856506,602.333618 849.810364,604.868408 862.270935,603.963440 
	C864.846008,603.776367 867.376221,603.038330 869.944580,602.679199 
	C883.296082,600.812927 894.984436,595.117004 905.506714,586.954956 
	C921.914124,574.227722 929.278687,556.091797 934.748840,536.951599 
	C937.750366,526.449463 940.190369,515.786011 943.236145,505.297699 
	C946.965210,492.456696 951.079773,479.727936 954.995544,466.940765 
	C957.096558,460.079651 959.120178,453.194885 961.196106,446.326019 
	C963.744263,437.894379 966.394226,429.492554 968.849365,421.034058 
	C972.393738,408.822998 975.404419,396.441376 979.381165,384.375916 
	C983.335999,372.377045 987.427246,360.537354 986.218567,347.625336 
	C986.063904,345.973297 986.061462,344.280609 986.223694,342.629852 
	C987.049072,334.234680 984.166931,327.247894 979.174377,320.538055 
	C969.015015,306.884125 951.395081,299.959290 934.754700,304.027405 
	C928.387146,305.584167 922.152832,307.685791 915.295227,309.704681 
	C910.531372,297.110840 900.320374,287.694397 886.538818,283.723969 
	C872.698425,279.736481 858.697937,281.151337 846.350647,290.471436 
	C840.423279,276.471008 830.661072,267.436157 816.592957,262.959473 
	C802.190918,258.376526 789.202454,262.386627 777.131104,269.324524 
	C774.706421,265.530701 772.686279,262.285278 770.583191,259.094604 
	C763.298584,248.043198 752.132629,242.769257 739.871094,240.466721 
	C730.539429,238.714355 721.230835,241.389175 712.715576,245.770081 
	C699.550354,252.543228 692.870605,264.171173 688.976440,277.877625 
	C686.441223,286.801208 683.707947,295.668762 681.037903,304.553741 
	C679.102600,310.994049 677.011536,317.389801 675.192871,323.862427 
	C672.272522,334.255707 669.690430,344.746338 666.640137,355.100006 
	C664.395386,362.719299 661.631104,370.185547 658.901917,378.304291 
	C653.137756,374.869843 647.172241,371.210236 641.107666,367.722931 
	C626.353882,359.238983 613.295837,348.682312 602.055054,335.909790 
	C594.946411,327.832581 587.759827,319.638611 584.754639,309.072205 
	C583.008057,302.931610 582.770630,296.366760 581.785461,290.003448 
	C580.221741,279.903534 578.517822,269.824677 577.035583,259.713135 
	C576.185425,253.913452 575.724182,248.057693 574.952148,242.245193 
	C574.575684,239.410690 574.058044,236.571472 573.309814,233.814301 
	C571.235046,226.168503 569.082581,218.541733 566.820679,210.949203 
	C562.781433,197.390442 556.794373,184.842499 547.154480,174.287857 
	C539.595520,166.011581 531.040588,158.494064 519.950195,156.312958 
	C503.846558,153.145905 487.319214,151.944580 471.354492,157.164749 
	C463.162140,159.843521 455.221710,163.705231 447.731201,168.012680 
	C438.505951,173.317657 429.729279,179.447357 421.020508,185.591599 
	C414.051392,190.508484 407.992218,189.283295 401.223846,184.948792 
	C388.981262,177.108536 376.551849,169.498459 363.771271,162.585754 
	C357.417053,159.148941 350.278381,156.274048 343.196075,155.286911 
	C333.382904,153.919159 323.288727,154.560654 313.314575,154.356781 
	C303.709534,154.160431 295.279541,158.014267 287.730927,163.191010 
	C271.435059,174.366516 261.616211,190.340897 256.019806,209.066269 
	C253.772797,216.584717 251.299377,224.056519 249.519592,231.687302 
	C247.924408,238.526550 247.043457,245.540817 246.027176,252.504105 
	C245.155502,258.476685 244.695633,264.510742 243.772217,270.474060 
	C242.306870,279.937042 239.755371,289.316772 239.231689,298.818146 
	C238.638443,309.581573 234.497314,318.704437 227.903046,326.338531 
	C219.070312,336.564117 209.575195,346.425568 199.211670,355.059662 
	C189.722244,362.965485 178.983765,369.517578 168.270889,375.766479 
	C158.494583,381.469055 149.864944,387.023193 147.493927,399.562103 
	C145.961060,407.668549 150.732285,421.483978 157.494247,426.230133 
	C164.137543,430.893005 171.370453,433.009552 179.364227,433.005615 
	C193.696838,432.998566 208.029709,432.949768 222.361954,433.022186 
	C232.436050,433.073059 234.234299,430.187988 234.022003,444.570465 
	C233.925217,451.128021 237.008469,456.460266 241.714386,460.594971 
	C246.209869,464.544800 249.828506,468.190582 251.614807,474.629333 
	C255.733170,489.474213 262.325806,503.498444 269.963074,516.956421 
	C270.878326,518.569214 271.417114,520.395691 272.235107,522.376831 
	C268.166931,523.045349 264.734314,523.415039 261.396637,524.192383 
	C248.686295,527.152649 235.376297,528.731201 223.481354,533.685486 
	C209.860260,539.358765 197.185120,547.574402 184.690720,555.605957 
	C171.961685,563.788330 162.006012,575.156006 152.998108,587.243652 
	C141.626129,602.503662 132.979767,619.078918 127.621460,637.492859 
	C124.644188,647.724365 122.071083,657.803650 122.087601,668.536133 
	C122.176369,726.199768 122.126053,783.863525 122.151550,841.527283 
	C122.152351,843.327515 122.146843,845.223755 122.670914,846.911682 
	C125.348854,855.537231 135.483719,863.795593 146.140030,863.911499 
	C171.802338,864.190613 197.470184,864.077026 223.134781,863.936401 
	C228.102509,863.909241 232.442764,864.333862 236.114365,868.339050 
	C237.549606,869.904846 240.395187,870.815735 242.639008,870.896362 
	C254.929291,871.337891 267.232086,871.605896 279.530731,871.612122 
	C381.025574,871.663147 482.520416,871.633728 584.015259,871.670898 
	C589.615112,871.672913 594.545715,870.546509 599.016174,866.737915 
	C601.012085,865.037415 604.330994,864.067566 607.015869,864.133667 
	C622.350037,864.511169 637.669495,865.463379 653.003174,865.893555 
	C663.494385,866.187927 674.000549,865.950012 685.500000,865.950012 
z"/>
<path fill="#FDFDFD" opacity="1.000000" stroke="none" 
	d="
M685.000000,865.950012 
	C674.000549,865.950012 663.494385,866.187927 653.003174,865.893555 
	C637.669495,865.463379 622.350037,864.511169 607.015869,864.133667 
	C604.330994,864.067566 601.012085,865.037415 599.016174,866.737915 
	C594.545715,870.546509 589.615112,871.672913 584.015259,871.670898 
	C482.520416,871.633728 381.025574,871.663147 279.530731,871.612122 
	C267.232086,871.605896 254.929291,871.337891 242.639008,870.896362 
	C240.395187,870.815735 237.549606,869.904846 236.114365,868.339050 
	C232.442764,864.333862 228.102509,863.909241 223.134781,863.936401 
	C197.470184,864.077026 171.802338,864.190613 146.140030,863.911499 
	C135.483719,863.795593 125.348854,855.537231 122.670914,846.911682 
	C122.146843,845.223755 122.152351,843.327515 122.151550,841.527283 
	C122.126053,783.863525 122.176369,726.199768 122.087601,668.536133 
	C122.071083,657.803650 124.644188,647.724365 127.621460,637.492859 
	C132.979767,619.078918 141.626129,602.503662 152.998108,587.243652 
	C162.006012,575.156006 171.961685,563.788330 184.690720,555.605957 
	C197.185120,547.574402 209.860260,539.358765 223.481354,533.685486 
	C235.376297,528.731201 248.686295,527.152649 261.396637,524.192383 
	C264.734314,523.415039 268.166931,523.045349 272.235107,522.376831 
	C271.417114,520.395691 270.878326,518.569214 269.963074,516.956421 
	C262.325806,503.498444 255.733170,489.474213 251.614807,474.629333 
	C249.828506,468.190582 246.209869,464.544800 241.714386,460.594971 
	C237.008469,456.460266 233.925217,451.128021 234.022003,444.570465 
	C234.234299,430.187988 232.436050,433.073059 222.361954,433.022186 
	C208.029709,432.949768 193.696838,432.998566 179.364227,433.005615 
	C171.370453,433.009552 164.137543,430.893005 157.494247,426.230133 
	C150.732285,421.483978 145.961060,407.668549 147.493927,399.562103 
	C149.864944,387.023193 158.494583,381.469055 168.270889,375.766479 
	C178.983765,369.517578 189.722244,362.965485 199.211670,355.059662 
	C209.575195,346.425568 219.070312,336.564117 227.903046,326.338531 
	C234.497314,318.704437 238.638443,309.581573 239.231689,298.818146 
	C239.755371,289.316772 242.306870,279.937042 243.772217,270.474060 
	C244.695633,264.510742 245.155502,258.476685 246.027176,252.504105 
	C247.043457,245.540817 247.924408,238.526550 249.519592,231.687302 
	C251.299377,224.056519 253.772797,216.584717 256.019806,209.066269 
	C261.616211,190.340897 271.435059,174.366516 287.730927,163.191010 
	C295.279541,158.014267 303.709534,154.160431 313.314575,154.356781 
	C323.288727,154.560654 333.382904,153.919159 343.196075,155.286911 
	C350.278381,156.274048 357.417053,159.148941 363.771271,162.585754 
	C376.551849,169.498459 388.981262,177.108536 401.223846,184.948792 
	C407.992218,189.283295 414.051392,190.508484 421.020508,185.591599 
	C429.729279,179.447357 438.505951,173.317657 447.731201,168.012680 
	C455.221710,163.705231 463.162140,159.843521 471.354492,157.164749 
	C487.319214,151.944580 503.846558,153.145905 519.950195,156.312958 
	C531.040588,158.494064 539.595520,166.011581 547.154480,174.287857 
	C556.794373,184.842499 562.781433,197.390442 566.820679,210.949203 
	C569.082581,218.541733 571.235046,226.168503 573.309814,233.814301 
	C574.058044,236.571472 574.575684,239.410690 574.952148,242.245193 
	C575.724182,248.057693 576.185425,253.913452 577.035583,259.713135 
	C578.517822,269.824677 580.221741,279.903534 581.785461,290.003448 
	C582.770630,296.366760 583.008057,302.931610 584.754639,309.072205 
	C587.759827,319.638611 594.946411,327.832581 602.055054,335.909790 
	C613.295837,348.682312 626.353882,359.238983 641.107666,367.722931 
	C647.172241,371.210236 653.137756,374.869843 658.901917,378.304291 
	C661.631104,370.185547 664.395386,362.719299 666.640137,355.100006 
	C669.690430,344.746338 672.272522,334.255707 675.192871,323.862427 
	C677.011536,317.389801 679.102600,310.994049 681.037903,304.553741 
	C683.707947,295.668762 686.441223,286.801208 688.976440,277.877625 
	C692.870605,264.171173 699.550354,252.543228 712.715576,245.770081 
	C721.230835,241.389175 730.539429,238.714355 739.871094,240.466721 
	C752.132629,242.769257 763.298584,248.043198 770.583191,259.094604 
	C772.686279,262.285278 774.706421,265.530701 777.131104,269.324524 
	C789.202454,262.386627 802.190918,258.376526 816.592957,262.959473 
	C830.661072,267.436157 840.423279,276.471008 846.350647,290.471436 
	C858.697937,281.151337 872.698425,279.736481 886.538818,283.723969 
	C900.320374,287.694397 910.531372,297.110840 915.295227,309.704681 
	C922.152832,307.685791 928.387146,305.584167 934.754700,304.027405 
	C951.395081,299.959290 969.015015,306.884125 979.174377,320.538055 
	C984.166931,327.247894 987.049072,334.234680 986.223694,342.629852 
	C986.061462,344.280609 986.063904,345.973297 986.218567,347.625336 
	C987.427246,360.537354 983.335999,372.377045 979.381165,384.375916 
	C975.404419,396.441376 972.393738,408.822998 968.849365,421.034058 
	C966.394226,429.492554 963.744263,437.894379 961.196106,446.326019 
	C959.120178,453.194885 957.096558,460.079651 954.995544,466.940765 
	C951.079773,479.727936 946.965210,492.456696 943.236145,505.297699 
	C940.190369,515.786011 937.750366,526.449463 934.748840,536.951599 
	C929.278687,556.091797 921.914124,574.227722 905.506714,586.954956 
	C894.984436,595.117004 883.296082,600.812927 869.944580,602.679199 
	C867.376221,603.038330 864.846008,603.776367 862.270935,603.963440 
	C849.810364,604.868408 837.856506,602.333618 826.134033,598.374268 
	C823.899292,597.619446 821.657471,596.885437 819.419922,596.138977 
	C815.379578,594.791199 813.739014,596.196106 812.906189,600.490051 
	C812.092773,604.683899 810.529602,608.734863 809.258301,612.836975 
	C807.181458,619.537598 805.078918,626.230225 802.979126,632.923645 
	C800.145752,641.955505 797.203064,650.954651 794.494141,660.023560 
	C791.519653,669.981628 788.858521,680.033386 785.873230,689.988037 
	C783.113037,699.191833 780.012573,708.293274 777.231506,717.491028 
	C774.332642,727.078430 771.723206,736.753357 768.826294,746.341370 
	C766.122131,755.291504 763.110718,764.148865 760.416321,773.101868 
	C758.447449,779.643982 756.839539,786.293762 754.949402,792.860718 
	C753.098206,799.292175 751.092285,805.679077 749.156494,812.086182 
	C747.089050,818.929443 745.256104,825.854553 742.897156,832.595642 
	C740.203064,840.294617 739.305237,848.665466 733.721130,855.314392 
	C728.091309,862.017578 720.756287,865.224426 712.484436,865.802246 
	C703.529907,866.427734 694.498108,865.947815 685.000000,865.950012 
M332.999512,554.000000 
	C332.999512,554.000000 332.957489,554.031128 333.137177,554.680542 
	C334.849945,556.089172 336.562744,557.497803 338.005005,559.550232 
	C336.362762,561.390930 334.720520,563.231628 332.463135,564.999817 
	C332.051971,564.982117 331.640808,564.964417 331.055695,564.173462 
	C331.030304,563.117493 331.004913,562.061584 331.455750,560.676270 
	C330.964203,560.119446 330.472656,559.562622 329.488281,558.577148 
	C327.674774,557.302490 325.861267,556.027832 323.894348,554.088074 
	C322.447327,553.476990 321.000275,552.865845 319.011414,552.167725 
	C318.695740,551.986877 318.380035,551.805969 317.880219,551.009094 
	C317.124573,550.744995 316.368927,550.480896 314.940826,550.090515 
	C312.295532,548.719482 309.650208,547.348389 306.888916,545.256958 
	C306.075500,544.954712 305.262054,544.652466 303.937805,544.343933 
	C303.631378,544.201660 303.324921,544.059387 302.891510,543.208313 
	C302.076141,542.923340 301.260773,542.638306 299.732635,542.205261 
	C297.815887,541.782959 295.899139,541.360596 293.690582,540.505432 
	C293.100769,540.850037 292.510956,541.194641 291.428070,542.066162 
	C290.195496,544.355896 288.962952,546.645569 286.845123,548.951172 
	C284.070862,548.968079 281.276306,548.787781 278.529327,549.070007 
	C276.649384,549.263184 274.835693,550.100830 272.179596,550.957703 
	C268.440643,551.290100 264.701691,551.622559 260.615509,551.452942 
	C259.739746,551.865234 258.863983,552.277527 257.286011,552.994995 
	C256.526917,553.030151 255.767807,553.065308 254.660233,552.579102 
	C253.096252,553.189575 251.532272,553.800110 249.286057,554.786377 
	C248.517273,554.858704 247.748489,554.931030 246.696014,554.543152 
	C246.126465,554.929321 245.556900,555.315430 244.398972,556.114441 
	C243.247253,556.372803 242.095535,556.631104 240.641281,556.456787 
	C240.090195,556.875854 239.539108,557.294922 238.324738,558.093201 
	C233.746460,559.835632 229.168182,561.578003 223.833603,563.153931 
	C222.555389,564.035767 221.277176,564.917603 219.536453,566.329956 
	C216.537247,567.980286 213.538025,569.630676 209.807571,571.147827 
	C209.206879,571.752625 208.606186,572.357422 207.661194,573.539001 
	C195.078674,581.873901 184.692780,592.557678 174.323395,604.112549 
	C173.964859,604.902222 173.606323,605.691956 173.116043,607.143921 
	C170.710205,610.766296 168.304382,614.388672 165.197067,618.105469 
	C164.547607,619.563904 163.898148,621.022278 163.234848,623.182068 
	C161.393280,627.118591 159.551712,631.055115 157.032822,635.158813 
	C156.806259,635.979431 156.579697,636.799988 156.433533,638.247620 
	C156.217117,638.830261 156.000717,639.412903 155.234726,640.047058 
	C155.139786,640.685608 155.044846,641.324097 154.984726,642.671997 
	C154.806061,643.104614 154.627396,643.537170 153.885498,644.135620 
	C153.608322,645.422058 153.331146,646.708557 153.114487,648.794556 
	C152.269653,652.188904 151.424820,655.583313 150.008102,659.098633 
	C149.955551,660.042725 149.903000,660.986755 149.976028,662.781128 
	C149.731522,664.175354 149.487015,665.569580 148.791214,667.129578 
	C148.849350,667.742126 148.907486,668.354736 149.087723,669.662170 
	C148.950928,670.105652 148.814133,670.549072 147.988266,671.184387 
	C147.983231,673.444824 147.978180,675.705200 148.154312,678.893127 
	C148.137634,729.205750 148.182037,779.518555 148.003860,829.830566 
	C147.987183,834.537781 149.095383,836.094421 154.038055,836.054810 
	C182.691254,835.824768 211.347229,835.935547 240.002258,835.959290 
	C241.986343,835.960938 243.970230,836.191406 245.963165,837.013855 
	C246.861801,838.696594 247.760437,840.379272 249.106873,842.526245 
	C250.064636,843.383667 251.022400,844.241089 252.168228,845.876343 
	C254.192886,846.247620 256.217407,846.942810 258.242249,846.943848 
	C363.818695,846.996460 469.395142,846.990356 574.971619,846.989075 
	C576.303650,846.989075 577.785461,847.338867 578.930481,846.871521 
	C580.427307,846.260620 581.657837,844.997131 583.389038,843.545715 
	C583.956421,842.703430 584.523804,841.861206 585.789185,840.892029 
	C586.209106,839.371033 586.628967,837.849976 587.939392,836.040649 
	C606.956848,836.118225 625.974304,836.195801 645.218506,837.025085 
	C646.436768,837.351685 647.652954,837.952698 648.873535,837.961731 
	C659.344482,838.039307 669.816345,838.040527 680.287415,837.971069 
	C681.526367,837.962891 682.761719,837.392334 684.936218,837.065979 
	C690.767944,837.070068 696.599670,837.076416 702.431396,837.077637 
	C711.474609,837.079590 711.665955,837.137451 714.404724,828.303772 
	C722.357056,802.654053 730.197693,776.969177 737.975464,751.265869 
	C745.557495,726.209412 752.996704,701.109802 760.519409,676.035400 
	C766.761536,655.229187 773.036072,634.432617 779.292725,613.630676 
	C784.264038,597.102112 789.205017,580.564392 794.227905,564.051514 
	C794.897644,561.849670 795.544800,559.465942 798.996521,560.538635 
	C810.699768,564.175293 822.427368,567.737793 834.189819,571.178040 
	C844.034668,574.057373 853.722351,577.215210 864.407471,575.199829 
	C882.375549,571.810730 895.599976,562.247070 901.867493,545.239502 
	C908.166626,528.146240 912.787231,510.428528 917.995300,492.940308 
	C926.945435,462.887115 935.792236,432.803131 944.659180,402.725220 
	C949.635864,385.843811 954.676819,368.980011 959.466309,352.045349 
	C961.585327,344.553009 958.380005,337.022186 952.183594,333.544647 
	C943.929077,328.912109 935.781189,329.269348 930.586731,336.297729 
	C926.904358,341.280243 924.989929,347.765442 923.092896,353.832092 
	C918.644104,368.059448 914.754089,382.460388 910.501465,396.750519 
	C904.210388,417.890411 897.775085,438.987335 891.450745,460.117371 
	C886.885925,475.368652 882.420654,490.649719 877.861877,505.902802 
	C877.160706,508.248871 876.781128,510.775391 872.912537,509.508972 
	C863.763489,506.514008 854.522644,503.775269 845.236206,501.235352 
	C841.146545,500.116760 840.442932,498.212311 841.688416,494.327728 
	C844.976868,484.070618 847.917419,473.701599 850.972351,463.369995 
	C859.301880,435.199860 867.614563,407.024750 875.942993,378.854248 
	C880.462524,363.567200 885.182129,348.336273 889.467896,332.984131 
	C892.447693,322.310486 887.125610,312.851593 877.268188,310.260254 
	C868.572632,307.974365 858.800781,314.103607 856.070862,323.372345 
	C845.659363,358.721924 835.166321,394.047516 824.756775,429.397675 
	C822.657349,436.527252 820.789856,443.725128 818.212280,451.057007 
	C817.836670,451.730194 817.461060,452.403381 817.044312,453.872894 
	C815.716492,458.581512 814.388611,463.290131 812.539246,468.333069 
	C812.388000,468.914154 812.236816,469.495239 812.041809,470.873657 
	C810.665039,476.228119 809.288269,481.582581 807.225525,487.042725 
	C806.115417,487.406708 805.005249,487.770691 803.100586,488.085114 
	C798.735046,487.047119 794.369568,486.009125 789.644348,484.325562 
	C784.992981,482.882233 780.418152,481.040222 775.664856,480.127350 
	C772.145691,479.451447 771.530212,477.652740 772.258423,474.903687 
	C773.423218,470.506714 774.879639,466.186462 776.234741,461.840637 
	C780.130310,449.347351 784.145813,436.890259 787.911194,424.357971 
	C792.528564,408.989929 796.898804,393.547791 801.456604,378.161591 
	C804.198486,368.905457 807.128906,359.705322 809.909912,350.460541 
	C812.222229,342.773621 814.469727,335.066772 816.690857,327.352936 
	C818.499451,321.072144 820.811218,314.862823 821.852234,308.451721 
	C823.392456,298.965576 816.422668,290.942230 806.042358,289.168121 
	C797.389099,287.689240 788.133057,294.263245 785.981567,303.184998 
	C784.374023,309.851135 782.636719,316.496033 780.658997,323.060486 
	C777.930481,332.116638 774.762695,341.041199 772.074524,350.108490 
	C769.094666,360.159607 766.603943,370.356201 763.599976,380.399628 
	C760.984985,389.142792 757.702332,397.688416 755.155457,406.449463 
	C749.897766,424.535492 744.935974,442.707489 739.847839,460.842834 
	C737.802979,468.131317 737.231567,468.406372 730.644409,466.395966 
	C722.329834,463.858215 714.027893,461.240326 705.605957,459.109955 
	C701.850525,458.159973 701.510925,456.743713 702.904480,453.522461 
	C704.253235,450.404724 705.072937,447.050537 706.030640,443.772644 
	C708.927124,433.859131 711.712219,423.912689 714.665588,414.016327 
	C717.368286,404.959869 720.347900,395.985260 722.996887,386.913696 
	C725.986389,376.675842 728.609924,366.330597 731.636475,356.104248 
	C734.977112,344.816376 738.676025,333.634888 742.066284,322.361206 
	C744.946655,312.783081 747.654846,303.152222 750.340210,293.517120 
	C751.076416,290.875641 751.868652,288.143341 751.924377,285.438110 
	C752.106995,276.563416 746.049500,270.107025 736.141846,268.186188 
	C729.537354,266.905731 720.985107,271.858917 718.230103,278.691345 
	C717.193848,281.261353 716.401794,283.934967 715.588440,286.588959 
	C711.703979,299.263458 707.795654,311.931091 704.004822,324.633667 
	C701.426819,333.271912 699.121887,341.991821 696.528442,350.625183 
	C692.773499,363.124969 688.770874,375.550629 685.054443,388.061554 
	C681.455933,400.175690 678.233154,412.402222 674.576782,424.498169 
	C670.235107,438.860840 665.078674,452.998077 661.271606,467.494659 
	C658.297424,478.819427 658.112122,490.282440 662.800903,501.706360 
	C667.817017,513.927856 676.107483,522.910461 687.882141,527.843262 
	C698.400330,532.249695 709.722595,534.729370 720.671875,538.117981 
	C725.766418,539.694641 730.817810,541.410706 736.048340,543.115540 
	C734.845276,546.962830 733.895508,549.912354 733.000854,552.878540 
	C730.890137,559.876648 728.824585,566.888489 726.705688,573.884094 
	C724.142883,582.345093 721.475952,590.775146 718.978699,599.255310 
	C716.103394,609.019226 713.476685,618.857117 710.539978,628.602051 
	C706.117493,643.277283 701.580811,657.919067 696.958130,672.532410 
	C695.621887,676.756592 693.824219,680.834839 691.951172,684.357239 
	C691.947510,683.905029 691.943909,683.452820 692.415283,682.735596 
	C692.068848,682.149109 691.722412,681.562622 690.944641,680.352112 
	C690.678284,678.879639 690.411987,677.407104 690.563843,675.644897 
	C690.191101,675.086670 689.818359,674.528381 689.055481,673.326233 
	C688.919006,672.090454 688.782532,670.854736 688.846130,668.951477 
	C688.397339,668.290710 687.948486,667.629944 687.133728,666.366272 
	C687.096008,665.902649 687.058228,665.439087 687.469360,664.687988 
	C687.092407,664.118530 686.715393,663.549072 685.888428,662.413696 
	C685.617371,661.261414 685.346252,660.109131 685.516357,658.658569 
	C685.108032,658.100647 684.699707,657.542786 683.904236,656.387329 
	C683.456421,654.819641 683.008545,653.251953 682.793518,651.002625 
	C682.332275,650.328430 681.871033,649.654236 680.917053,648.424866 
	C680.148132,646.167664 679.379150,643.910400 678.814026,640.940674 
	C678.280945,640.292664 677.747864,639.644653 676.795227,638.398621 
	C673.428528,631.791992 670.061768,625.185425 666.840698,617.836731 
	C666.224915,617.232239 665.609070,616.627686 664.486694,615.575745 
	C660.614502,610.128174 656.742310,604.680542 652.908020,598.539673 
	C652.261169,598.037720 651.614258,597.535767 650.363647,596.752625 
	C647.224426,593.527039 644.085205,590.301453 640.907959,586.379028 
	C640.192261,585.963135 639.476624,585.547241 638.124268,584.956543 
	C635.745972,582.940125 633.367737,580.923645 630.900085,578.228088 
	C630.153931,577.878845 629.407776,577.529541 627.992493,577.070251 
	C623.323486,574.028198 618.654480,570.986206 613.897949,567.233459 
	C612.431946,566.574402 610.965942,565.915344 608.806335,565.221497 
	C605.873657,563.727417 602.940918,562.233398 599.840332,560.046692 
	C598.997070,559.844299 598.153870,559.641846 596.643738,559.463623 
	C595.427490,558.929321 594.211304,558.394958 592.952148,557.299316 
	C592.313293,557.182312 591.674377,557.065308 590.283508,556.949158 
	C585.859741,555.533630 581.435974,554.118103 576.913208,552.111267 
	C575.966553,552.018799 575.019897,551.926331 573.277527,551.947693 
	C571.185852,551.547607 569.094238,551.147461 566.800537,550.011536 
	C562.108093,549.193115 557.366516,548.456726 555.459534,543.072693 
	C555.435059,543.003601 555.150513,543.026550 554.381836,542.680542 
	C552.936890,542.025391 551.492004,541.370178 549.798767,539.978943 
	C549.412048,539.694946 549.027405,539.166077 548.638306,539.162781 
	C539.078552,539.081360 529.515808,538.939148 519.961304,539.153320 
	C518.620728,539.183350 517.320374,541.008118 515.822144,542.458740 
	C515.641541,542.754822 515.382446,542.942688 514.450012,543.032349 
	C514.284790,543.683777 514.119568,544.335266 513.976440,545.920166 
	C513.620178,551.289551 513.263977,556.658936 512.315369,562.299377 
	C510.238403,564.568359 508.161469,566.837280 505.261566,569.021851 
	C497.583588,567.405212 490.443726,564.840881 485.883606,557.455261 
	C485.916321,557.288818 485.949036,557.122437 486.652313,556.981812 
	C487.729950,555.972412 488.807587,554.963013 490.380554,553.781799 
	C490.580231,553.503296 490.779938,553.224854 491.657288,552.890320 
	C493.738708,550.913147 495.820129,548.935974 498.488037,546.780823 
	C498.977814,546.153076 499.467590,545.525391 500.618286,544.783447 
	C502.450623,542.539673 504.282990,540.295898 506.667694,537.848938 
	C507.107300,537.207764 507.546875,536.566528 508.634430,535.754639 
	C511.740082,531.167419 514.845703,526.580139 518.243286,521.858826 
	C518.243286,521.858826 518.249084,521.537537 518.848633,521.272583 
	C519.182678,520.508423 519.516785,519.744324 520.275024,518.716553 
	C520.359253,518.404785 520.443420,518.093079 521.128540,517.434265 
	C522.443848,514.961304 523.759094,512.488342 525.468201,509.740753 
	C525.667664,509.459198 525.722839,509.151764 526.218872,508.449829 
	C527.986267,504.624146 529.753601,500.798462 531.863770,496.381256 
	C532.628784,494.210358 533.195984,491.943970 534.190796,489.884033 
	C540.678894,476.448669 545.720703,462.552338 548.344604,447.808380 
	C549.026978,443.974091 550.314209,440.247406 552.002625,436.714844 
	C554.091980,437.794098 556.181396,438.873322 558.960938,440.309052 
	C559.958740,427.768860 560.883667,416.145447 562.764587,404.431122 
	C589.924988,404.431122 617.085388,404.431122 644.245789,404.431122 
	C644.375305,403.957458 644.504822,403.483795 644.634338,403.010132 
	C642.911255,401.892456 641.206543,400.745209 639.461975,399.662048 
	C630.714539,394.230713 621.794739,389.058655 613.238892,383.341370 
	C598.919373,373.772644 586.890320,361.610535 575.333252,348.123077 
	C570.000366,339.725311 564.667480,331.327515 559.325623,322.108368 
	C557.947083,316.121948 556.187073,310.193909 555.259766,304.138367 
	C552.169922,283.960236 549.641174,263.693970 546.382385,243.544724 
	C544.152649,229.757706 540.614319,216.235107 533.968689,203.782608 
	C525.340454,187.614975 512.133667,178.464539 493.483704,180.536377 
	C485.291199,181.446472 476.867432,184.317703 469.554932,188.195831 
	C457.393677,194.645447 446.155853,202.812103 434.316101,209.899780 
	C424.985291,215.485519 414.831177,219.320740 403.917969,215.958511 
	C397.034149,213.837677 390.400391,210.442947 384.171417,206.748123 
	C367.397430,196.798386 351.992004,184.336945 331.836731,181.071884 
	C323.830719,179.774948 316.260132,180.103790 308.902954,183.165482 
	C298.329315,187.565781 291.279816,195.865982 287.006744,206.059937 
	C283.126373,215.317001 279.958557,225.000534 277.703705,234.779007 
	C274.848572,247.160812 273.145782,259.814453 271.112823,272.377808 
	C269.472290,282.516083 268.171906,292.709259 266.544220,302.849792 
	C265.419586,309.856567 263.994263,316.815063 262.162445,324.207153 
	C257.259644,332.009308 252.356812,339.811462 246.861588,347.897858 
	C228.424088,372.135681 203.189819,387.978516 177.564560,403.604309 
	C179.990128,404.289001 182.097717,404.282959 184.205292,404.289948 
	C209.136398,404.372742 234.067520,404.457458 259.058502,405.345337 
	C259.875885,416.809540 260.693268,428.273743 261.563477,440.478790 
	C265.272186,438.533356 268.147125,437.025269 271.160370,436.343323 
	C271.769592,439.244965 272.396027,442.143127 272.985291,445.048798 
	C276.677551,463.256866 282.366516,480.749603 291.626495,497.718384 
	C292.230865,498.703918 292.835236,499.689453 293.432892,501.186707 
	C293.627472,501.456604 293.822083,501.726532 293.989014,502.718292 
	C295.575500,505.328247 297.161987,507.938202 298.690857,510.839325 
	C298.690857,510.839325 298.931641,511.012878 298.901764,511.727875 
	C300.176086,513.678833 301.450439,515.629761 302.727783,517.875854 
	C302.727783,517.875854 302.994904,518.001648 302.993561,518.692444 
	C303.919250,519.962708 304.844940,521.233032 305.758881,522.835266 
	C305.758881,522.835266 306.051178,522.993103 306.037842,523.646851 
	C306.614655,524.268066 307.191498,524.889282 307.790558,525.849121 
	C307.790558,525.849121 308.101593,525.984863 308.087128,526.658447 
	C308.947693,527.654785 309.808258,528.651062 310.675140,529.891663 
	C310.675140,529.891663 310.880066,530.024719 310.915710,530.692078 
	C311.531189,531.303223 312.146698,531.914368 312.831116,533.035095 
	C313.199310,533.366272 313.567505,533.697449 313.936798,534.693604 
	C314.968628,535.770081 316.000488,536.846619 317.174225,538.502441 
	C317.757629,539.013000 318.341034,539.523560 318.980499,540.718201 
	C322.977783,544.492920 326.975067,548.267578 330.999786,552.000000 
	C330.999786,552.000000 330.957123,552.027222 330.947937,552.705872 
	C331.622437,553.151917 332.296967,553.597961 332.999512,554.000000 
M559.384399,505.642548 
	C558.266174,507.964905 557.147949,510.287292 555.880920,512.918640 
	C558.223999,513.747070 560.303101,514.553040 562.425964,515.219727 
	C569.817505,517.541321 574.459595,525.307312 582.939758,525.512939 
	C584.885620,525.560059 586.991089,525.632019 588.733582,526.373230 
	C599.096680,530.781250 609.418030,535.294128 619.671875,539.951111 
	C637.418762,548.011292 653.136841,559.136658 666.497131,573.224487 
	C674.773071,581.951111 681.899109,591.768188 689.708374,601.299683 
	C691.011841,596.823730 692.452148,591.681702 694.010193,586.575562 
	C696.097168,579.736389 698.155090,572.884094 700.463928,566.118713 
	C701.659607,562.614990 701.157776,560.808716 697.177307,559.868835 
	C691.885071,558.619263 686.708557,556.812134 681.567078,555.003845 
	C664.960693,549.163269 652.437866,538.336182 642.944214,523.619446 
	C634.930115,511.196228 631.407898,497.310120 631.511719,482.997589 
	C631.581909,473.336639 634.655640,463.638489 636.879456,454.071777 
	C638.507080,447.069794 640.937561,440.254425 643.044434,433.241943 
	C624.213074,433.241943 605.664246,433.241943 587.134949,433.241943 
	C586.476929,451.844269 586.451843,451.821533 574.476562,465.023010 
	C573.334534,466.281952 572.534180,467.976044 571.963501,469.604218 
	C570.341492,474.232391 569.008728,478.961670 567.399902,483.594818 
	C564.922302,490.730011 562.309692,497.818359 559.384399,505.642548 
z"/>
<path fill="#828181" opacity="1.000000" stroke="none" 
	d="
M585.091187,841.018921 
	C584.523804,841.861206 583.956421,842.703430 582.777100,843.815063 
	C580.055176,844.436890 577.945374,845.096924 575.835266,845.097595 
	C467.883575,845.133240 359.931885,845.112915 251.980164,845.098511 
	C251.022400,844.241089 250.064636,843.383667 248.933105,841.909180 
	C248.388458,839.484192 248.017563,837.676208 247.698242,835.411072 
	C247.798004,832.789978 247.887482,830.626038 247.888214,828.462097 
	C247.899277,795.637939 247.882263,762.813721 247.914490,729.989563 
	C247.921097,723.256042 250.206573,721.011230 256.930115,720.974731 
	C265.260895,720.929565 273.614166,720.591675 281.915161,721.089783 
	C287.265503,721.410950 288.167480,719.450256 288.149658,714.596619 
	C287.976074,667.277100 288.053223,619.956665 288.036957,572.636536 
	C288.034454,565.307312 287.920685,557.978149 287.862061,550.360229 
	C287.820648,549.692749 287.775513,549.314026 287.730408,548.935242 
	C288.962952,546.645569 290.195496,544.355896 291.958740,541.898743 
	C292.987091,541.466980 293.484741,541.202637 293.982391,540.938293 
	C295.899139,541.360596 297.815887,541.782959 300.252014,542.558472 
	C301.520447,543.246826 302.269470,543.581970 303.018494,543.917114 
	C303.324921,544.059387 303.631378,544.201660 304.353882,544.630676 
	C305.514954,545.270752 306.259949,545.624023 307.004913,545.977356 
	C309.650208,547.348389 312.295532,548.719482 315.404236,550.447937 
	C316.599915,551.078613 317.332123,551.351868 318.064362,551.625122 
	C318.380035,551.805969 318.695740,551.986877 319.437805,552.513977 
	C321.258728,553.491211 322.653259,554.122192 324.047760,554.753174 
	C325.861267,556.027832 327.674774,557.302490 329.720337,559.093750 
	C330.294800,560.075378 330.637177,560.540527 330.979523,561.005615 
	C331.004913,562.061584 331.030304,563.117493 331.039917,564.888611 
	C331.067841,566.058411 331.111511,566.513062 331.099792,567.409607 
	C331.072021,570.769470 331.099701,573.687500 331.082764,577.112061 
	C331.021484,623.765015 331.057312,669.911682 330.897980,716.057617 
	C330.883820,720.158752 332.231964,721.089661 336.056824,721.032471 
	C349.547974,720.830750 363.044128,720.994812 376.538086,720.942932 
	C390.688782,720.888611 404.839111,720.745483 419.446228,720.752686 
	C449.567474,720.895569 479.232452,720.866699 508.896393,721.029480 
	C512.885132,721.051331 514.017822,719.678406 514.009888,715.807678 
	C513.908569,666.309387 513.953613,616.810852 513.899292,567.312439 
	C513.897339,565.550720 513.252747,563.789673 512.907715,562.028320 
	C513.263977,556.658936 513.620178,551.289551 514.220764,545.296265 
	C514.658386,544.122437 514.851685,543.572449 515.044922,543.022461 
	C515.382446,542.942688 515.641541,542.754822 516.327454,542.172485 
	C519.106995,541.544861 521.376526,540.948853 523.656189,540.907349 
	C532.451416,540.747192 541.249817,540.764099 550.047058,540.715027 
	C551.492004,541.370178 552.936890,542.025391 554.724487,543.214600 
	C555.719727,546.079590 556.372437,548.410583 557.006836,551.226318 
	C556.952515,582.536072 556.905701,613.361145 556.883850,644.186157 
	C556.866821,668.180542 556.950928,692.175293 556.806946,716.168823 
	C556.784912,719.842957 557.761292,721.287659 561.577332,721.025391 
	C565.889282,720.729065 570.237244,720.950073 574.569580,720.961121 
	C583.364929,720.983521 585.158813,722.736694 585.161499,731.416321 
	C585.171692,763.742065 585.149597,796.067749 585.200134,828.393433 
	C585.203979,830.863220 585.681396,833.332214 585.829956,836.168823 
	C585.511230,838.030334 585.301208,839.524658 585.091187,841.018921 
M511.118408,749.509338 
	C510.277008,750.314148 509.422150,751.105408 508.596191,751.925720 
	C498.203156,762.248535 496.875031,776.683044 505.162018,789.192017 
	C512.244507,799.882874 527.632141,803.861694 540.310181,798.280273 
	C551.904968,793.175781 559.708618,778.015991 556.614319,766.607239 
	C551.005127,745.925720 530.460388,737.887512 511.118408,749.509338 
M329.650787,793.151428 
	C336.542877,787.122437 339.484009,779.181274 338.746643,770.428650 
	C337.727509,758.331116 331.307526,749.355774 319.569763,745.521545 
	C308.534790,741.916992 298.339966,743.824036 289.858459,752.577454 
	C279.746735,763.013245 279.039062,780.954712 288.595337,791.027771 
	C300.280396,803.344727 317.075623,804.403076 329.650787,793.151428 
z"/>
<path fill="#E4AE01" opacity="1.000000" stroke="none" 
	d="
M262.703308,323.795166 
	C263.994263,316.815063 265.419586,309.856567 266.544220,302.849792 
	C268.171906,292.709259 269.472290,282.516083 271.112823,272.377808 
	C273.145782,259.814453 274.848572,247.160812 277.703705,234.779007 
	C279.958557,225.000534 283.126373,215.317001 287.006744,206.059937 
	C291.279816,195.865982 298.329315,187.565781 308.902954,183.165482 
	C316.260132,180.103790 323.830719,179.774948 331.836731,181.071884 
	C351.992004,184.336945 367.397430,196.798386 384.171417,206.748123 
	C390.400391,210.442947 397.034149,213.837677 403.917969,215.958511 
	C414.831177,219.320740 424.985291,215.485519 434.316101,209.899780 
	C446.155853,202.812103 457.393677,194.645447 469.554932,188.195831 
	C476.867432,184.317703 485.291199,181.446472 493.483704,180.536377 
	C512.133667,178.464539 525.340454,187.614975 533.968689,203.782608 
	C540.614319,216.235107 544.152649,229.757706 546.382385,243.544724 
	C549.641174,263.693970 552.169922,283.960236 555.259766,304.138367 
	C556.187073,310.193909 557.947083,316.121948 558.834106,322.552795 
	C493.765442,323.311554 429.188507,323.695892 364.610962,323.911560 
	C330.642273,324.024994 296.672546,323.843475 262.703308,323.795166 
z"/>
<path fill="#E9E7E5" opacity="1.000000" stroke="none" 
	d="
M692.238037,684.979919 
	C693.824219,680.834839 695.621887,676.756592 696.958130,672.532410 
	C701.580811,657.919067 706.117493,643.277283 710.539978,628.602051 
	C713.476685,618.857117 716.103394,609.019226 718.978699,599.255310 
	C721.475952,590.775146 724.142883,582.345093 726.705688,573.884094 
	C728.824585,566.888489 730.890137,559.876648 733.000854,552.878540 
	C733.895508,549.912354 734.845276,546.962830 736.048340,543.115540 
	C730.817810,541.410706 725.766418,539.694641 720.671875,538.117981 
	C709.722595,534.729370 698.400330,532.249695 687.882141,527.843262 
	C676.107483,522.910461 667.817017,513.927856 662.800903,501.706360 
	C658.112122,490.282440 658.297424,478.819427 661.271606,467.494659 
	C665.078674,452.998077 670.235107,438.860840 674.576782,424.498169 
	C678.233154,412.402222 681.455933,400.175690 685.054443,388.061554 
	C688.770874,375.550629 692.773499,363.124969 696.528442,350.625183 
	C699.121887,341.991821 701.426819,333.271912 704.004822,324.633667 
	C707.795654,311.931091 711.703979,299.263458 715.588440,286.588959 
	C716.401794,283.934967 717.193848,281.261353 718.230103,278.691345 
	C720.985107,271.858917 729.537354,266.905731 736.141846,268.186188 
	C746.049500,270.107025 752.106995,276.563416 751.924377,285.438110 
	C751.868652,288.143341 751.076416,290.875641 750.340210,293.517120 
	C747.654846,303.152222 744.946655,312.783081 742.066284,322.361206 
	C738.676025,333.634888 734.977112,344.816376 731.636475,356.104248 
	C728.609924,366.330597 725.986389,376.675842 722.996887,386.913696 
	C720.347900,395.985260 717.368286,404.959869 714.665588,414.016327 
	C711.712219,423.912689 708.927124,433.859131 706.030640,443.772644 
	C705.072937,447.050537 704.253235,450.404724 702.904480,453.522461 
	C701.510925,456.743713 701.850525,458.159973 705.605957,459.109955 
	C714.027893,461.240326 722.329834,463.858215 730.644409,466.395966 
	C737.231567,468.406372 737.802979,468.131317 739.847839,460.842834 
	C744.935974,442.707489 749.897766,424.535492 755.155457,406.449463 
	C757.702332,397.688416 760.984985,389.142792 763.599976,380.399628 
	C766.603943,370.356201 769.094666,360.159607 772.074524,350.108490 
	C774.762695,341.041199 777.930481,332.116638 780.658997,323.060486 
	C782.636719,316.496033 784.374023,309.851135 785.981567,303.184998 
	C788.133057,294.263245 797.389099,287.689240 806.042358,289.168121 
	C816.422668,290.942230 823.392456,298.965576 821.852234,308.451721 
	C820.811218,314.862823 818.499451,321.072144 816.690857,327.352936 
	C814.469727,335.066772 812.222229,342.773621 809.909912,350.460541 
	C807.128906,359.705322 804.198486,368.905457 801.456604,378.161591 
	C796.898804,393.547791 792.528564,408.989929 787.911194,424.357971 
	C784.145813,436.890259 780.130310,449.347351 776.234741,461.840637 
	C774.879639,466.186462 773.423218,470.506714 772.258423,474.903687 
	C771.530212,477.652740 772.145691,479.451447 775.664856,480.127350 
	C780.418152,481.040222 784.992981,482.882233 789.680420,484.993958 
	C787.826843,491.644196 785.862305,497.603638 784.061096,503.612030 
	C777.796204,524.510071 771.607727,545.431030 765.352051,566.331848 
	C760.235107,583.427917 755.048950,600.503113 749.920410,617.595764 
	C744.074646,637.078857 738.291565,656.580811 732.421570,676.056702 
	C725.598755,698.693665 718.683594,721.302734 711.861389,743.939880 
	C707.327515,758.984131 702.901123,774.060730 698.399048,789.114624 
	C693.615845,805.108948 688.800232,821.093567 683.998718,837.082458 
	C682.761719,837.392334 681.526367,837.962891 680.287415,837.971069 
	C669.816345,838.040527 659.344482,838.039307 648.873535,837.961731 
	C647.652954,837.952698 646.436768,837.351685 645.435791,836.468994 
	C646.781494,834.834473 648.517883,833.953003 648.941101,832.646301 
	C652.052551,823.038208 654.923462,813.351746 657.829102,803.677551 
	C666.119568,776.074768 674.496948,748.497375 682.619263,720.845093 
	C686.106628,708.972595 689.048401,696.939880 692.238037,684.979919 
z"/>
<path fill="#F99206" opacity="1.000000" stroke="none" 
	d="
M287.858398,550.648926 
	C287.920685,557.978149 288.034454,565.307312 288.036957,572.636536 
	C288.053223,619.956665 287.976074,667.277100 288.149658,714.596619 
	C288.167480,719.450256 287.265503,721.410950 281.915161,721.089783 
	C273.614166,720.591675 265.260895,720.929565 256.930115,720.974731 
	C250.206573,721.011230 247.921097,723.256042 247.914490,729.989563 
	C247.882263,762.813721 247.899277,795.637939 247.888214,828.462097 
	C247.887482,830.626038 247.798004,832.789978 247.405365,835.436401 
	C246.692001,836.051025 246.323105,836.183289 245.954208,836.315491 
	C243.970230,836.191406 241.986343,835.960938 240.002258,835.959290 
	C211.347229,835.935547 182.691254,835.824768 154.038055,836.054810 
	C149.095383,836.094421 147.987183,834.537781 148.003860,829.830566 
	C148.182037,779.518555 148.137634,729.205750 148.322006,678.141968 
	C148.552246,675.257996 148.614792,673.125305 148.677338,670.992554 
	C148.814133,670.549072 148.950928,670.105652 149.258316,669.134583 
	C149.366776,668.059265 149.304642,667.511536 149.242508,666.963806 
	C149.487015,665.569580 149.731522,664.175354 150.189636,662.166992 
	C150.462173,660.694458 150.521088,659.836060 150.579987,658.977661 
	C151.424820,655.583313 152.269653,652.188904 153.347626,648.206360 
	C153.870071,646.402039 154.159378,645.185913 154.448700,643.969788 
	C154.627396,643.537170 154.806061,643.104614 155.233246,642.176270 
	C155.582611,641.118835 155.683456,640.557190 155.784302,639.995544 
	C156.000717,639.412903 156.217117,638.830261 156.671783,637.768005 
	C157.176743,636.522827 157.443436,635.757202 157.710144,634.991638 
	C159.551712,631.055115 161.393280,627.118591 163.545349,622.677246 
	C164.536774,620.785339 165.217682,619.398254 165.898575,618.011108 
	C168.304382,614.388672 170.710205,610.766296 173.478134,606.675842 
	C174.243561,605.483948 174.646896,604.760132 175.050232,604.036316 
	C184.692780,592.557678 195.078674,581.873901 208.156738,573.246094 
	C209.281143,572.395813 209.909988,571.838440 210.538818,571.281067 
	C213.538025,569.630676 216.537247,567.980286 220.107117,566.096008 
	C221.981827,565.014832 223.285873,564.167664 224.589905,563.320435 
	C229.168182,561.578003 233.746460,559.835632 238.948303,557.987488 
	C240.029175,557.550964 240.486496,557.220215 240.943802,556.889404 
	C242.095535,556.631104 243.247253,556.372803 244.975830,556.007568 
	C246.028366,555.601562 246.504044,555.302429 246.979706,555.003296 
	C247.748489,554.931030 248.517273,554.858704 249.948151,554.721741 
	C252.076401,554.138245 253.542557,553.619385 255.008698,553.100525 
	C255.767807,553.065308 256.526917,553.030151 257.957855,552.954834 
	C259.407379,552.594849 260.185059,552.274963 260.962738,551.955017 
	C264.701691,551.622559 268.440643,551.290100 273.030396,550.954956 
	C278.540253,550.851074 283.199310,550.750000 287.858398,550.648926 
z"/>
<path fill="#CECDCB" opacity="1.000000" stroke="none" 
	d="
M684.467468,837.074219 
	C688.800232,821.093567 693.615845,805.108948 698.399048,789.114624 
	C702.901123,774.060730 707.327515,758.984131 711.861389,743.939880 
	C718.683594,721.302734 725.598755,698.693665 732.421570,676.056702 
	C738.291565,656.580811 744.074646,637.078857 749.920410,617.595764 
	C755.048950,600.503113 760.235107,583.427917 765.352051,566.331848 
	C771.607727,545.431030 777.796204,524.510071 784.061096,503.612030 
	C785.862305,497.603638 787.826843,491.644196 789.860229,485.316742 
	C794.369568,486.009125 798.735046,487.047119 803.584839,488.432068 
	C806.660278,490.898621 807.576050,489.523010 807.911560,486.937042 
	C809.288269,481.582581 810.665039,476.228119 812.343262,470.424683 
	C812.783386,469.316742 812.922058,468.657715 813.060730,467.998718 
	C814.388611,463.290131 815.716492,458.581512 817.379272,453.406616 
	C818.081299,452.257385 818.448364,451.574463 818.815430,450.891541 
	C820.789856,443.725128 822.657349,436.527252 824.756775,429.397675 
	C835.166321,394.047516 845.659363,358.721924 856.070862,323.372345 
	C858.800781,314.103607 868.572632,307.974365 877.268188,310.260254 
	C887.125610,312.851593 892.447693,322.310486 889.467896,332.984131 
	C885.182129,348.336273 880.462524,363.567200 875.942993,378.854248 
	C867.614563,407.024750 859.301880,435.199860 850.972351,463.369995 
	C847.917419,473.701599 844.976868,484.070618 841.688416,494.327728 
	C840.442932,498.212311 841.146545,500.116760 845.236206,501.235352 
	C854.522644,503.775269 863.763489,506.514008 872.912537,509.508972 
	C876.781128,510.775391 877.160706,508.248871 877.861877,505.902802 
	C882.420654,490.649719 886.885925,475.368652 891.450745,460.117371 
	C897.775085,438.987335 904.210388,417.890411 910.501465,396.750519 
	C914.754089,382.460388 918.644104,368.059448 923.092896,353.832092 
	C924.989929,347.765442 926.904358,341.280243 930.586731,336.297729 
	C935.781189,329.269348 943.929077,328.912109 952.183594,333.544647 
	C958.380005,337.022186 961.585327,344.553009 959.466309,352.045349 
	C954.676819,368.980011 949.635864,385.843811 944.659180,402.725220 
	C935.792236,432.803131 926.945435,462.887115 917.995300,492.940308 
	C912.787231,510.428528 908.166626,528.146240 901.867493,545.239502 
	C895.599976,562.247070 882.375549,571.810730 864.407471,575.199829 
	C853.722351,577.215210 844.034668,574.057373 834.189819,571.178040 
	C822.427368,567.737793 810.699768,564.175293 798.996521,560.538635 
	C795.544800,559.465942 794.897644,561.849670 794.227905,564.051514 
	C789.205017,580.564392 784.264038,597.102112 779.292725,613.630676 
	C773.036072,634.432617 766.761536,655.229187 760.519409,676.035400 
	C752.996704,701.109802 745.557495,726.209412 737.975464,751.265869 
	C730.197693,776.969177 722.357056,802.654053 714.404724,828.303772 
	C711.665955,837.137451 711.474609,837.079590 702.431396,837.077637 
	C696.599670,837.076416 690.767944,837.070068 684.467468,837.074219 
z"/>
<path fill="#F28E06" opacity="1.000000" stroke="none" 
	d="
M692.094604,684.668579 
	C689.048401,696.939880 686.106628,708.972595 682.619263,720.845093 
	C674.496948,748.497375 666.119568,776.074768 657.829102,803.677551 
	C654.923462,813.351746 652.052551,823.038208 648.941101,832.646301 
	C648.517883,833.953003 646.781494,834.834473 645.322449,836.093140 
	C625.974304,836.195801 606.956848,836.118225 587.239502,836.004272 
	C586.339355,835.912476 586.139038,835.857056 585.938721,835.801575 
	C585.681396,833.332214 585.203979,830.863220 585.200134,828.393433 
	C585.149597,796.067749 585.171692,763.742065 585.161499,731.416321 
	C585.158813,722.736694 583.364929,720.983521 574.569580,720.961121 
	C570.237244,720.950073 565.889282,720.729065 561.577332,721.025391 
	C557.761292,721.287659 556.784912,719.842957 556.806946,716.168823 
	C556.950928,692.175293 556.866821,668.180542 556.883850,644.186157 
	C556.905701,613.361145 556.952515,582.536072 557.459717,551.245972 
	C560.954773,550.769714 563.978699,550.758545 567.002563,550.747375 
	C569.094238,551.147461 571.185852,551.547607 573.850708,552.178223 
	C575.286682,552.506714 576.149475,552.604675 577.012207,552.702576 
	C581.435974,554.118103 585.859741,555.533630 590.788086,557.225830 
	C591.860107,557.621826 592.427551,557.741272 592.995056,557.860657 
	C594.211304,558.394958 595.427490,558.929321 597.158203,559.717285 
	C598.451172,560.227051 599.229675,560.483215 600.008240,560.739319 
	C602.940918,562.233398 605.873657,563.727417 609.303833,565.546448 
	C611.196045,566.562317 612.590759,567.253296 613.985474,567.944214 
	C618.654480,570.986206 623.323486,574.028198 628.433960,577.424805 
	C629.580078,578.155273 630.284790,578.531250 630.989441,578.907227 
	C633.367737,580.923645 635.745972,582.940125 638.517700,585.354492 
	C639.589355,586.193604 640.267639,586.634766 640.945923,587.075928 
	C644.085205,590.301453 647.224426,593.527039 650.681885,597.212402 
	C651.623474,598.192444 652.246765,598.712708 652.870117,599.232910 
	C656.742310,604.680542 660.614502,610.128174 664.734497,616.128052 
	C665.553162,617.313110 666.124084,617.945984 666.695007,618.578796 
	C670.061768,625.185425 673.428528,631.791992 676.953857,639.016602 
	C677.611755,640.307434 678.111023,640.980286 678.610229,641.653198 
	C679.379150,643.910400 680.148132,646.167664 681.079834,649.011108 
	C681.682007,650.292969 682.121399,650.988647 682.560669,651.684265 
	C683.008545,653.251953 683.456421,654.819641 684.010498,656.973816 
	C684.436218,658.025818 684.755676,658.491333 685.075195,658.956848 
	C685.346252,660.109131 685.617371,661.261414 686.015686,662.976318 
	C686.435486,664.017761 686.727966,664.496582 687.020508,664.975464 
	C687.058228,665.439087 687.096008,665.902649 687.216431,666.970825 
	C687.748108,668.256592 688.197083,668.937744 688.646057,669.618958 
	C688.782532,670.854736 688.919006,672.090454 689.140442,673.928955 
	C689.532166,674.999390 689.838928,675.466980 690.145691,675.934631 
	C690.411987,677.407104 690.678284,678.879639 691.041016,680.938721 
	C691.405090,682.017151 691.672668,682.508850 691.940308,683.000610 
	C691.943909,683.452820 691.947510,683.905029 692.094604,684.668579 
z"/>
<path fill="#F0B601" opacity="1.000000" stroke="none" 
	d="
M575.466736,348.826721 
	C586.890320,361.610535 598.919373,373.772644 613.238892,383.341370 
	C621.794739,389.058655 630.714539,394.230713 639.461975,399.662048 
	C641.206543,400.745209 642.911255,401.892456 644.634338,403.010132 
	C644.504822,403.483795 644.375305,403.957458 644.245789,404.431122 
	C617.085388,404.431122 589.924988,404.431122 561.851074,404.377808 
	C549.472656,404.264313 538.007568,404.148529 526.542969,404.180420 
	C523.424255,404.189087 520.306824,404.642914 516.781982,404.772369 
	C510.530273,404.578339 504.685394,404.504333 498.393036,404.336578 
	C491.161041,404.496185 484.376526,404.749573 477.156036,404.889099 
	C474.914337,404.562500 473.108734,404.166016 471.302765,404.164185 
	C435.147156,404.127899 398.991516,404.122620 362.835968,404.173645 
	C360.705963,404.176666 358.576660,404.706665 356.080078,405.020782 
	C346.965607,404.854614 338.218109,404.659088 328.979797,404.377136 
	C320.207153,404.348114 311.925232,404.405457 303.213043,404.375793 
	C288.188049,404.373108 273.593323,404.457397 258.998627,404.541687 
	C234.067520,404.457458 209.136398,404.372742 184.205292,404.289948 
	C182.097717,404.282959 179.990128,404.289001 177.564560,403.604309 
	C203.189819,387.978516 228.424088,372.135681 247.494232,348.087036 
	C250.404266,348.520905 252.681564,348.978851 254.959045,348.979645 
	C359.300812,349.014923 463.642609,349.011566 567.984375,349.002563 
	C570.478516,349.002350 572.972595,348.887878 575.466736,348.826721 
z"/>
<path fill="#F7C988" opacity="1.000000" stroke="none" 
	d="
M356.447052,404.991394 
	C358.576660,404.706665 360.705963,404.176666 362.835968,404.173645 
	C398.991516,404.122620 435.147156,404.127899 471.302765,404.164185 
	C473.108734,404.166016 474.914337,404.562500 476.778076,405.140808 
	C467.657532,406.990173 458.512360,408.751282 449.288879,409.861084 
	C443.049377,410.611847 445.262238,414.728790 445.376129,418.024658 
	C445.521667,422.238617 448.400696,421.423706 451.143005,420.980438 
	C464.093231,418.887177 477.027588,416.667328 490.020538,414.876923 
	C499.593079,413.557861 499.629486,413.821960 498.840485,404.430359 
	C504.685394,404.504333 510.530273,404.578339 516.789429,405.209656 
	C519.663086,425.794922 522.122437,445.822876 524.581848,465.850800 
	C525.132385,465.997040 525.682922,466.143250 526.233521,466.289459 
	C531.427551,454.493103 536.621643,442.696747 542.078613,430.303162 
	C545.657532,432.690948 548.490601,434.581116 551.323669,436.471313 
	C550.314209,440.247406 549.026978,443.974091 548.344604,447.808380 
	C545.720703,462.552338 540.678894,476.448669 534.190796,489.884033 
	C533.195984,491.943970 532.628784,494.210358 531.213074,496.666962 
	C527.731262,497.364197 524.900146,497.775726 521.649475,498.126587 
	C519.841064,498.240723 518.452271,498.415497 516.635254,498.430847 
	C508.486786,498.888855 500.766449,499.506348 492.580048,500.053467 
	C486.729156,500.027191 481.344269,500.071289 475.660767,499.837921 
	C468.221130,499.220398 461.080170,498.880402 453.593140,498.406921 
	C452.514465,498.290558 451.781891,498.307648 450.775757,498.087952 
	C446.540405,496.052063 444.590332,491.633728 439.381287,491.031342 
	C423.525177,489.197693 407.746124,486.834137 391.831665,490.156555 
	C385.535706,491.470978 378.344482,490.126282 373.736298,496.675293 
	C372.892883,497.873932 370.125183,497.910858 368.205627,498.125153 
	C361.494476,498.874359 354.765839,499.466400 347.578064,500.046692 
	C341.726959,500.025116 336.341675,500.075012 330.659302,499.843445 
	C322.554199,499.243927 314.746155,498.925781 306.537994,498.471313 
	C304.732391,498.297424 303.326935,498.259857 301.657471,497.908142 
	C298.116455,497.392212 294.839447,497.190430 291.562408,496.988647 
	C282.366516,480.749603 276.677551,463.256866 272.985291,445.048798 
	C272.396027,442.143127 271.769592,439.244965 271.237305,435.653809 
	C273.558105,433.617615 275.801971,432.270966 278.595032,430.594696 
	C283.979584,442.730133 289.138733,454.357605 294.297882,465.985077 
	C294.876617,465.854065 295.455322,465.723053 296.034058,465.592041 
	C298.570496,445.215607 301.106903,424.839203 303.643341,404.462799 
	C311.925232,404.405457 320.207153,404.348114 328.917786,404.768219 
	C329.860321,408.066254 326.955994,412.133698 332.654083,412.990387 
	C347.931793,415.287354 363.208191,417.628021 378.412109,420.358002 
	C382.770111,421.140533 383.357849,418.799866 383.720886,415.870300 
	C384.096680,412.837585 385.080994,409.682190 379.904449,409.082825 
	C372.032959,408.171387 364.261169,406.398438 356.447052,404.991394 
M348.242188,438.766663 
	C348.695282,439.838867 349.067261,440.954590 349.614990,441.976013 
	C352.557434,447.463257 358.154602,450.231445 364.218903,449.253540 
	C370.036346,448.315399 375.005341,443.712708 375.906647,438.427246 
	C377.084930,431.517609 374.556244,425.765564 368.797760,422.761719 
	C364.191986,420.359131 359.471771,420.321167 354.974487,423.054901 
	C349.395416,426.446136 347.232666,431.520935 348.242188,438.766663 
M469.600952,421.130737 
	C459.079773,422.282196 453.030518,431.472870 456.820740,440.547913 
	C459.620789,447.252106 466.290253,450.650116 473.416443,449.003174 
	C480.165192,447.443451 484.484314,441.478973 484.091766,434.261139 
	C483.698975,427.038849 478.467957,422.012299 469.600952,421.130737 
z"/>
<path fill="#F18E06" opacity="1.000000" stroke="none" 
	d="
M512.611572,562.163818 
	C513.252747,563.789673 513.897339,565.550720 513.899292,567.312439 
	C513.953613,616.810852 513.908569,666.309387 514.009888,715.807678 
	C514.017822,719.678406 512.885132,721.051331 508.896393,721.029480 
	C479.232452,720.866699 449.567474,720.895569 419.448120,720.316467 
	C418.996429,684.235718 418.999451,648.702820 419.419800,613.095459 
	C432.130920,611.311584 444.452393,609.851074 456.105347,605.078247 
	C475.660187,597.068909 492.272003,585.052795 506.084534,569.106262 
	C508.161469,566.837280 510.238403,564.568359 512.611572,562.163818 
z"/>
<path fill="#78402A" opacity="1.000000" stroke="none" 
	d="
M451.049286,498.324768 
	C451.781891,498.307648 452.514465,498.290558 453.745422,498.724243 
	C461.482300,499.488495 468.720856,499.801971 475.959412,500.115417 
	C481.344269,500.071289 486.729156,500.027191 492.880341,500.331909 
	C498.404236,500.772217 503.182739,501.169495 507.911957,500.846283 
	C510.999420,500.635284 514.015442,499.378601 517.063416,498.590271 
	C518.452271,498.415497 519.841064,498.240723 521.921265,498.380035 
	C524.612793,498.950043 526.612915,499.205963 528.588501,499.458740 
	C527.509644,502.876099 526.571655,505.847290 525.633667,508.818481 
	C525.722839,509.151764 525.667664,509.459198 524.913635,509.903137 
	C523.081909,512.637451 521.804749,515.209351 520.527649,517.781311 
	C520.443420,518.093079 520.359253,518.404785 519.711182,518.909180 
	C518.847839,519.913696 518.548462,520.725586 518.249084,521.537537 
	C518.249084,521.537537 518.243286,521.858826 517.750610,521.948059 
	C514.167480,526.666626 511.076965,531.296021 507.986450,535.925354 
	C507.546875,536.566528 507.107300,537.207764 506.033936,537.945190 
	C503.585938,540.326843 501.771667,542.612244 499.957397,544.897705 
	C499.467590,545.525391 498.977814,546.153076 497.835999,546.861511 
	C495.115845,548.943604 493.047729,550.944946 490.979614,552.946350 
	C490.779938,553.224854 490.580231,553.503296 489.777893,553.865662 
	C488.110748,554.951721 487.046265,555.953857 485.981750,556.955994 
	C485.949036,557.122437 485.916321,557.288818 485.566101,557.652466 
	C485.074890,557.865234 484.901245,557.880798 484.398010,557.919922 
	C483.379150,558.626648 482.689911,559.309692 481.824646,560.248230 
	C480.549530,561.068115 479.450378,561.632568 477.963867,562.154785 
	C473.130798,564.216858 468.648773,566.248352 464.251709,568.449585 
	C461.087769,570.033508 458.037109,571.843750 454.626190,573.686646 
	C453.870911,573.862122 453.425354,573.904114 452.804474,573.713257 
	C451.394348,574.102600 450.159607,574.724854 448.611389,575.500732 
	C447.837677,575.690430 447.377411,575.726562 446.659607,575.527100 
	C442.583954,576.404846 438.765778,577.518188 434.586487,578.743774 
	C433.473114,578.875427 432.720886,578.894714 431.699493,578.641602 
	C427.932068,579.049988 424.433777,579.730774 420.491211,580.546997 
	C414.052521,580.593689 408.058075,580.505127 401.912231,580.109985 
	C398.183075,579.510010 394.605347,579.216492 390.651489,578.959106 
	C389.533875,578.875366 388.792389,578.755676 387.936584,578.305908 
	C383.908264,577.238220 379.994232,576.500610 375.732056,575.779053 
	C374.947327,575.646851 374.510834,575.498535 373.965668,575.092407 
	C372.577942,574.538330 371.298859,574.242188 369.682007,573.947083 
	C368.917694,573.812012 368.491150,573.675903 367.959717,573.233398 
	C365.359528,571.678650 362.886658,570.382751 360.364380,569.191528 
	C354.749268,566.539551 349.109436,563.939941 343.183411,561.284119 
	C342.271698,560.799988 341.656219,560.350769 340.997681,559.559326 
	C338.288879,557.488464 335.623199,555.759827 332.957489,554.031128 
	C332.957489,554.031128 332.999512,554.000000 332.965820,553.688354 
	C332.273773,552.926880 331.615448,552.477051 330.957123,552.027222 
	C330.957123,552.027222 330.999786,552.000000 330.983948,551.671143 
	C326.953552,547.572876 322.938995,543.803528 318.924438,540.034119 
	C318.341034,539.523560 317.757629,539.013000 317.112854,537.850342 
	C316.012909,536.141724 314.974304,535.085205 313.935699,534.028687 
	C313.567505,533.697449 313.199310,533.366272 312.852539,532.401184 
	C312.209351,531.186401 311.544708,530.605591 310.880066,530.024719 
	C310.880066,530.024719 310.675140,529.891663 310.761475,529.390137 
	C309.932404,527.920715 309.016998,526.952759 308.101593,525.984863 
	C308.101593,525.984863 307.790558,525.849121 307.838806,525.314331 
	C307.275116,524.184021 306.663147,523.588562 306.051178,522.993103 
	C306.051178,522.993103 305.758881,522.835266 305.829651,522.285645 
	C304.931915,520.491211 303.963409,519.246460 302.994904,518.001648 
	C302.994904,518.001648 302.727783,517.875854 302.813110,517.323975 
	C301.576202,514.852417 300.253906,512.932617 298.931641,511.012878 
	C298.931641,511.012878 298.690857,510.839325 298.789001,510.290771 
	C297.263672,507.160278 295.640167,504.578339 294.016663,501.996429 
	C293.822083,501.726532 293.627472,501.456604 293.725647,500.578491 
	C296.652771,499.387634 299.287109,498.804962 301.921448,498.222290 
	C303.326935,498.259857 304.732391,498.297424 306.703735,498.781769 
	C309.804077,499.747284 312.334137,500.673157 314.873871,500.700378 
	C320.232025,500.757782 325.595215,500.344849 330.956360,500.124878 
	C336.341675,500.075012 341.726959,500.025116 347.877502,500.326294 
	C355.946869,500.677399 363.250977,500.677399 371.534058,500.677399 
	C359.567902,515.438965 348.103088,529.582092 336.638306,543.725220 
	C337.111786,544.188599 337.585297,544.651917 338.058807,545.115295 
	C341.117523,543.233887 344.114136,541.241516 347.245178,539.489319 
	C365.730011,529.145081 384.540314,519.337891 402.597015,508.296661 
	C409.195282,504.261993 413.748413,504.456573 419.973969,508.187103 
	C438.135498,519.070068 456.606354,529.438171 474.998138,539.934265 
	C478.295532,541.816101 481.793793,543.345947 485.199280,545.038269 
	C485.410767,543.530579 485.128540,542.791687 484.655518,542.207092 
	C476.009064,531.521362 467.238464,520.933960 458.731293,510.138885 
	C455.835846,506.464691 453.591278,502.277527 451.049286,498.324768 
z"/>
<path fill="none" opacity="1.000000" stroke="none" 
	d="
M559.569336,505.284546 
	C562.309692,497.818359 564.922302,490.730011 567.399902,483.594818 
	C569.008728,478.961670 570.341492,474.232391 571.963501,469.604218 
	C572.534180,467.976044 573.334534,466.281952 574.476562,465.023010 
	C586.451843,451.821533 586.476929,451.844269 587.134949,433.241943 
	C605.664246,433.241943 624.213074,433.241943 643.044434,433.241943 
	C640.937561,440.254425 638.507080,447.069794 636.879456,454.071777 
	C634.655640,463.638489 631.581909,473.336639 631.511719,482.997589 
	C631.407898,497.310120 634.930115,511.196228 642.944214,523.619446 
	C652.437866,538.336182 664.960693,549.163269 681.567078,555.003845 
	C686.708557,556.812134 691.885071,558.619263 697.177307,559.868835 
	C701.157776,560.808716 701.659607,562.614990 700.463928,566.118713 
	C698.155090,572.884094 696.097168,579.736389 694.010193,586.575562 
	C692.452148,591.681702 691.011841,596.823730 689.708374,601.299683 
	C681.899109,591.768188 674.773071,581.951111 666.497131,573.224487 
	C653.136841,559.136658 637.418762,548.011292 619.671875,539.951111 
	C609.418030,535.294128 599.096680,530.781250 588.733582,526.373230 
	C586.991089,525.632019 584.885620,525.560059 582.939758,525.512939 
	C574.459595,525.307312 569.817505,517.541321 562.425964,515.219727 
	C560.303101,514.553040 558.223999,513.747070 555.880920,512.918640 
	C557.147949,510.287292 558.266174,507.964905 559.569336,505.284546 
z"/>
<path fill="#F45213" opacity="1.000000" stroke="none" 
	d="
M575.400024,348.474915 
	C572.972595,348.887878 570.478516,349.002350 567.984375,349.002563 
	C463.642609,349.011566 359.300812,349.014923 254.959045,348.979645 
	C252.681564,348.978851 250.404266,348.520905 247.790436,347.944885 
	C252.356812,339.811462 257.259644,332.009308 262.432861,324.001160 
	C296.672546,323.843475 330.642273,324.024994 364.610962,323.911560 
	C429.188507,323.695892 493.765442,323.311554 558.838623,322.963501 
	C564.667480,331.327515 570.000366,339.725311 575.400024,348.474915 
z"/>
<path fill="#F6C279" opacity="1.000000" stroke="none" 
	d="
M388.050903,578.635986 
	C388.792389,578.755676 389.533875,578.875366 390.916473,579.233765 
	C395.059601,579.787170 398.561646,580.101807 402.063660,580.416504 
	C408.058075,580.505127 414.052521,580.593689 420.897400,580.706421 
	C425.154785,580.124939 428.561737,579.519470 431.968658,578.914001 
	C432.720886,578.894714 433.473114,578.875427 434.984314,578.854614 
	C439.467896,577.822937 443.192505,576.792786 446.917145,575.762695 
	C447.377411,575.726562 447.837677,575.690430 448.918976,575.641602 
	C450.686615,575.067932 451.833221,574.507080 452.979858,573.946167 
	C453.425354,573.904114 453.870911,573.862122 454.983154,573.776794 
	C463.217010,569.888000 470.784149,566.042480 478.351257,562.196960 
	C479.450378,561.632568 480.549530,561.068115 482.141113,560.244690 
	C483.331573,559.289185 484.029572,558.592773 484.727600,557.896301 
	C484.901245,557.880798 485.074890,557.865234 485.504791,557.899414 
	C490.443726,564.840881 497.583588,567.405212 505.673035,569.064087 
	C492.272003,585.052795 475.660187,597.068909 456.105347,605.078247 
	C444.452393,609.851074 432.130920,611.311584 418.957947,613.024780 
	C389.443665,613.080872 364.527344,603.103333 342.534760,585.130920 
	C338.862427,582.129822 334.936249,579.439453 331.127380,576.605469 
	C331.099701,573.687500 331.072021,570.769470 331.393829,567.353394 
	C332.188293,566.260925 332.633270,565.666626 333.078278,565.072327 
	C334.720520,563.231628 336.362762,561.390930 338.429260,559.307617 
	C339.582611,559.343811 340.311676,559.622620 341.040741,559.901489 
	C341.656219,560.350769 342.271698,560.799988 343.342499,561.592285 
	C351.886749,565.803467 359.975677,569.671631 368.064636,573.539795 
	C368.491150,573.675903 368.917694,573.812012 369.859924,574.228333 
	C371.608490,574.789124 372.841400,575.069641 374.074310,575.350220 
	C374.510834,575.498535 374.947327,575.646851 375.934570,576.096802 
	C380.340454,577.144287 384.195679,577.890137 388.050903,578.635986 
z"/>
<path fill="#7E472E" opacity="1.000000" stroke="none" 
	d="
M303.213043,404.375793 
	C301.106903,424.839203 298.570496,445.215607 296.034058,465.592041 
	C295.455322,465.723053 294.876617,465.854065 294.297882,465.985077 
	C289.138733,454.357605 283.979584,442.730133 278.595032,430.594696 
	C275.801971,432.270966 273.558105,433.617615 271.168152,435.240723 
	C268.147125,437.025269 265.272186,438.533356 261.563477,440.478790 
	C260.693268,428.273743 259.875885,416.809540 259.028564,404.943542 
	C273.593323,404.457397 288.188049,404.373108 303.213043,404.375793 
z"/>
<path fill="#7E472E" opacity="1.000000" stroke="none" 
	d="
M551.663147,436.593079 
	C548.490601,434.581116 545.657532,432.690948 542.078613,430.303162 
	C536.621643,442.696747 531.427551,454.493103 526.233521,466.289459 
	C525.682922,466.143250 525.132385,465.997040 524.581848,465.850800 
	C522.122437,445.822876 519.663086,425.794922 517.196289,405.329712 
	C520.306824,404.642914 523.424255,404.189087 526.542969,404.180420 
	C538.007568,404.148529 549.472656,404.264313 561.373047,404.423279 
	C560.883667,416.145447 559.958740,427.768860 558.960938,440.309052 
	C556.181396,438.873322 554.091980,437.794098 551.663147,436.593079 
z"/>
<path fill="#E9E7E5" opacity="1.000000" stroke="none" 
	d="
M252.074203,845.487427 
	C359.931885,845.112915 467.883575,845.133240 575.835266,845.097595 
	C577.945374,845.096924 580.055176,844.436890 582.583984,844.049438 
	C581.657837,844.997131 580.427307,846.260620 578.930481,846.871521 
	C577.785461,847.338867 576.303650,846.989075 574.971619,846.989075 
	C469.395142,846.990356 363.818695,846.996460 258.242249,846.943848 
	C256.217407,846.942810 254.192886,846.247620 252.074203,845.487427 
z"/>
<path fill="#E9E7E5" opacity="1.000000" stroke="none" 
	d="
M549.922913,540.346985 
	C541.249817,540.764099 532.451416,540.747192 523.656189,540.907349 
	C521.376526,540.948853 519.106995,541.544861 516.417114,541.944092 
	C517.320374,541.008118 518.620728,539.183350 519.961304,539.153320 
	C529.515808,538.939148 539.078552,539.081360 548.638306,539.162781 
	C549.027405,539.166077 549.412048,539.694946 549.922913,540.346985 
z"/>
<path fill="#89573F" opacity="1.000000" stroke="none" 
	d="
M525.926270,508.634155 
	C526.571655,505.847290 527.509644,502.876099 528.588501,499.458740 
	C526.612915,499.205963 524.612793,498.950043 522.340820,498.440674 
	C524.900146,497.775726 527.731262,497.364197 531.041626,496.962708 
	C529.753601,500.798462 527.986267,504.624146 525.926270,508.634155 
z"/>
<path fill="#89573F" opacity="1.000000" stroke="none" 
	d="
M318.952454,540.376160 
	C322.938995,543.803528 326.953552,547.572876 330.970245,551.692261 
	C326.975067,548.267578 322.977783,544.492920 318.952454,540.376160 
z"/>
<path fill="#89573F" opacity="1.000000" stroke="none" 
	d="
M508.310425,535.839966 
	C511.076965,531.296021 514.167480,526.666626 517.604675,522.015137 
	C514.845703,526.580139 511.740082,531.167419 508.310425,535.839966 
z"/>
<path fill="#E9E7E5" opacity="1.000000" stroke="none" 
	d="
M566.901550,550.379456 
	C563.978699,550.758545 560.954773,550.769714 557.478027,550.761230 
	C556.372437,548.410583 555.719727,546.079590 555.027222,543.377563 
	C555.150513,543.026550 555.435059,543.003601 555.459534,543.072693 
	C557.366516,548.456726 562.108093,549.193115 566.901550,550.379456 
z"/>
<path fill="#E9E7E5" opacity="1.000000" stroke="none" 
	d="
M287.862061,550.360229 
	C283.199310,550.750000 278.540253,550.851074 273.436798,550.801270 
	C274.835693,550.100830 276.649384,549.263184 278.529327,549.070007 
	C281.276306,548.787781 284.070862,548.968079 287.287750,548.943237 
	C287.775513,549.314026 287.820648,549.692749 287.862061,550.360229 
z"/>
<path fill="#89573F" opacity="1.000000" stroke="none" 
	d="
M301.657471,497.908142 
	C299.287109,498.804962 296.652771,499.387634 293.729004,500.322632 
	C292.835236,499.689453 292.230865,498.703918 291.594452,497.353516 
	C294.839447,497.190430 298.116455,497.392212 301.657471,497.908142 
z"/>
<path fill="#89573F" opacity="1.000000" stroke="none" 
	d="
M340.997681,559.559326 
	C340.311676,559.622620 339.582611,559.343811 338.564514,558.985718 
	C336.562744,557.497803 334.849945,556.089172 333.047333,554.355835 
	C335.623199,555.759827 338.288879,557.488464 340.997681,559.559326 
z"/>
<path fill="#89573F" opacity="1.000000" stroke="none" 
	d="
M491.318451,552.918335 
	C493.047729,550.944946 495.115845,548.943604 497.542725,546.950500 
	C495.820129,548.935974 493.738708,550.913147 491.318451,552.918335 
z"/>
<path fill="#89573F" opacity="1.000000" stroke="none" 
	d="
M500.287842,544.840576 
	C501.771667,542.612244 503.585938,540.326843 505.757782,538.046753 
	C504.282990,540.295898 502.450623,542.539673 500.287842,544.840576 
z"/>
<path fill="#89573F" opacity="1.000000" stroke="none" 
	d="
M294.002838,502.357361 
	C295.640167,504.578339 297.263672,507.160278 298.817810,510.145172 
	C297.161987,507.938202 295.575500,505.328247 294.002838,502.357361 
z"/>
<path fill="#89573F" opacity="1.000000" stroke="none" 
	d="
M520.828125,517.607788 
	C521.804749,515.209351 523.081909,512.637451 524.716736,510.040436 
	C523.759094,512.488342 522.443848,514.961304 520.828125,517.607788 
z"/>
<path fill="#E9E7E5" opacity="1.000000" stroke="none" 
	d="
M148.332794,671.088501 
	C148.614792,673.125305 148.552246,675.257996 148.231415,677.678223 
	C147.978180,675.705200 147.983231,673.444824 148.332794,671.088501 
z"/>
<path fill="#89573F" opacity="1.000000" stroke="none" 
	d="
M298.916687,511.370361 
	C300.253906,512.932617 301.576202,514.852417 302.811646,517.176392 
	C301.450439,515.629761 300.176086,513.678833 298.916687,511.370361 
z"/>
<path fill="#E9E7E5" opacity="1.000000" stroke="none" 
	d="
M245.958679,836.664673 
	C246.323105,836.183289 246.692001,836.051025 247.353790,835.893555 
	C248.017563,837.676208 248.388458,839.484192 248.709229,841.677124 
	C247.760437,840.379272 246.861801,838.696594 245.958679,836.664673 
z"/>
<path fill="#E9E7E5" opacity="1.000000" stroke="none" 
	d="
M254.834473,552.839844 
	C253.542557,553.619385 252.076401,554.138245 250.289276,554.533813 
	C251.532272,553.800110 253.096252,553.189575 254.834473,552.839844 
z"/>
<path fill="#E9E7E5" opacity="1.000000" stroke="none" 
	d="
M585.829956,836.168823 
	C586.139038,835.857056 586.339355,835.912476 586.794250,836.148438 
	C586.628967,837.849976 586.209106,839.371033 585.440186,840.955444 
	C585.301208,839.524658 585.511230,838.030334 585.829956,836.168823 
z"/>
<path fill="#E9E7E5" opacity="1.000000" stroke="none" 
	d="
M807.568542,486.989868 
	C807.576050,489.523010 806.660278,490.898621 803.982056,488.456848 
	C805.005249,487.770691 806.115417,487.406708 807.568542,486.989868 
z"/>
<path fill="#E9E7E5" opacity="1.000000" stroke="none" 
	d="
M165.547821,618.058289 
	C165.217682,619.398254 164.536774,620.785339 163.552277,622.326599 
	C163.898148,621.022278 164.547607,619.563904 165.547821,618.058289 
z"/>
<path fill="#89573F" opacity="1.000000" stroke="none" 
	d="
M313.936249,534.361145 
	C314.974304,535.085205 316.012909,536.141724 317.041931,537.560669 
	C316.000488,536.846619 314.968628,535.770081 313.936249,534.361145 
z"/>
<path fill="#E9E7E5" opacity="1.000000" stroke="none" 
	d="
M154.167099,644.052734 
	C154.159378,645.185913 153.870071,646.402039 153.317352,647.806580 
	C153.331146,646.708557 153.608322,645.422058 154.167099,644.052734 
z"/>
<path fill="#E9E7E5" opacity="1.000000" stroke="none" 
	d="
M613.941711,567.588867 
	C612.590759,567.253296 611.196045,566.562317 609.650635,565.563843 
	C610.965942,565.915344 612.431946,566.574402 613.941711,567.588867 
z"/>
<path fill="#E9E7E5" opacity="1.000000" stroke="none" 
	d="
M224.211761,563.237183 
	C223.285873,564.167664 221.981827,565.014832 220.338379,565.830750 
	C221.277176,564.917603 222.555389,564.035767 224.211761,563.237183 
z"/>
<path fill="#89573F" opacity="1.000000" stroke="none" 
	d="
M302.994232,518.347046 
	C303.963409,519.246460 304.931915,520.491211 305.835510,522.119629 
	C304.844940,521.233032 303.919250,519.962708 302.994232,518.347046 
z"/>
<path fill="#E9E7E5" opacity="1.000000" stroke="none" 
	d="
M323.971069,554.420654 
	C322.653259,554.122192 321.258728,553.491211 319.708740,552.557495 
	C321.000275,552.865845 322.447327,553.476990 323.971069,554.420654 
z"/>
<path fill="#89573F" opacity="1.000000" stroke="none" 
	d="
M486.317017,556.968872 
	C487.046265,555.953857 488.110748,554.951721 489.530212,553.951538 
	C488.807587,554.963013 487.729950,555.972412 486.317017,556.968872 
z"/>
<path fill="#89573F" opacity="1.000000" stroke="none" 
	d="
M308.094360,526.321655 
	C309.016998,526.952759 309.932404,527.920715 310.758362,529.268005 
	C309.808258,528.651062 308.947693,527.654785 308.094360,526.321655 
z"/>
<path fill="#E9E7E5" opacity="1.000000" stroke="none" 
	d="
M576.962708,552.406921 
	C576.149475,552.604675 575.286682,552.506714 574.248596,552.121338 
	C575.019897,551.926331 575.966553,552.018799 576.962708,552.406921 
z"/>
<path fill="#E9E7E5" opacity="1.000000" stroke="none" 
	d="
M150.294052,659.038147 
	C150.521088,659.836060 150.462173,660.694458 150.126862,661.741821 
	C149.903000,660.986755 149.955551,660.042725 150.294052,659.038147 
z"/>
<path fill="#E9E7E5" opacity="1.000000" stroke="none" 
	d="
M260.789124,551.703979 
	C260.185059,552.274963 259.407379,552.594849 258.308960,552.802307 
	C258.863983,552.277527 259.739746,551.865234 260.789124,551.703979 
z"/>
<path fill="#E9E7E5" opacity="1.000000" stroke="none" 
	d="
M685.295776,658.807739 
	C684.755676,658.491333 684.436218,658.025818 684.204102,657.272583 
	C684.699707,657.542786 685.108032,658.100647 685.295776,658.807739 
z"/>
<path fill="#E9E7E5" opacity="1.000000" stroke="none" 
	d="
M688.746094,669.285217 
	C688.197083,668.937744 687.748108,668.256592 687.399414,667.272339 
	C687.948486,667.629944 688.397339,668.290710 688.746094,669.285217 
z"/>
<path fill="#E9E7E5" opacity="1.000000" stroke="none" 
	d="
M332.770691,565.036072 
	C332.633270,565.666626 332.188293,566.260925 331.449280,566.911499 
	C331.111511,566.513062 331.067841,566.058411 331.126892,565.275269 
	C331.640808,564.964417 332.051971,564.982117 332.770691,565.036072 
z"/>
<path fill="#E9E7E5" opacity="1.000000" stroke="none" 
	d="
M818.513855,450.974274 
	C818.448364,451.574463 818.081299,452.257385 817.399780,453.008423 
	C817.461060,452.403381 817.836670,451.730194 818.513855,450.974274 
z"/>
<path fill="#E9E7E5" opacity="1.000000" stroke="none" 
	d="
M682.677124,651.343445 
	C682.121399,650.988647 681.682007,650.292969 681.326294,649.288696 
	C681.871033,649.654236 682.332275,650.328430 682.677124,651.343445 
z"/>
<path fill="#E9E7E5" opacity="1.000000" stroke="none" 
	d="
M690.354736,675.789795 
	C689.838928,675.466980 689.532166,674.999390 689.335510,674.250977 
	C689.818359,674.528381 690.191101,675.086670 690.354736,675.789795 
z"/>
<path fill="#E9E7E5" opacity="1.000000" stroke="none" 
	d="
M692.177795,682.868103 
	C691.672668,682.508850 691.405090,682.017151 691.256714,681.250732 
	C691.722412,681.562622 692.068848,682.149109 692.177795,682.868103 
z"/>
<path fill="#E9E7E5" opacity="1.000000" stroke="none" 
	d="
M149.016861,667.046692 
	C149.304642,667.511536 149.366776,668.059265 149.197266,668.787109 
	C148.907486,668.354736 148.849350,667.742126 149.016861,667.046692 
z"/>
<path fill="#E9E7E5" opacity="1.000000" stroke="none" 
	d="
M155.509506,640.021301 
	C155.683456,640.557190 155.582611,641.118835 155.215851,641.821533 
	C155.044846,641.324097 155.139786,640.685608 155.509506,640.021301 
z"/>
<path fill="#E9E7E5" opacity="1.000000" stroke="none" 
	d="
M678.712158,641.296936 
	C678.111023,640.980286 677.611755,640.307434 677.163696,639.315552 
	C677.747864,639.644653 678.280945,640.292664 678.712158,641.296936 
z"/>
<path fill="#E9E7E5" opacity="1.000000" stroke="none" 
	d="
M157.371475,635.075195 
	C157.443436,635.757202 157.176743,636.522827 156.631592,637.454468 
	C156.579697,636.799988 156.806259,635.979431 157.371475,635.075195 
z"/>
<path fill="#E9E7E5" opacity="1.000000" stroke="none" 
	d="
M687.244934,664.831726 
	C686.727966,664.496582 686.435486,664.017761 686.240662,663.259277 
	C686.715393,663.549072 687.092407,664.118530 687.244934,664.831726 
z"/>
<path fill="#E9E7E5" opacity="1.000000" stroke="none" 
	d="
M592.973633,557.579956 
	C592.427551,557.741272 591.860107,557.621826 591.164062,557.225342 
	C591.674377,557.065308 592.313293,557.182312 592.973633,557.579956 
z"/>
<path fill="#89573F" opacity="1.000000" stroke="none" 
	d="
M310.897888,530.358398 
	C311.544708,530.605591 312.209351,531.186401 312.818054,532.146362 
	C312.146698,531.914368 311.531189,531.303223 310.897888,530.358398 
z"/>
<path fill="#89573F" opacity="1.000000" stroke="none" 
	d="
M306.044495,523.319946 
	C306.663147,523.588562 307.275116,524.184021 307.827698,525.145020 
	C307.191498,524.889282 306.614655,524.268066 306.044495,523.319946 
z"/>
<path fill="#E9E7E5" opacity="1.000000" stroke="none" 
	d="
M293.836487,540.721863 
	C293.484741,541.202637 292.987091,541.466980 292.205292,541.635315 
	C292.510956,541.194641 293.100769,540.850037 293.836487,540.721863 
z"/>
<path fill="#E9E7E5" opacity="1.000000" stroke="none" 
	d="
M302.955017,543.562744 
	C302.269470,543.581970 301.520447,543.246826 300.608398,542.632507 
	C301.260773,542.638306 302.076141,542.923340 302.955017,543.562744 
z"/>
<path fill="#E9E7E5" opacity="1.000000" stroke="none" 
	d="
M514.747437,543.027405 
	C514.851685,543.572449 514.658386,544.122437 514.209717,544.829529 
	C514.119568,544.335266 514.284790,543.683777 514.747437,543.027405 
z"/>
<path fill="#E9E7E5" opacity="1.000000" stroke="none" 
	d="
M306.946899,545.617188 
	C306.259949,545.624023 305.514954,545.270752 304.609314,544.633789 
	C305.262054,544.652466 306.075500,544.954712 306.946899,545.617188 
z"/>
<path fill="#E9E7E5" opacity="1.000000" stroke="none" 
	d="
M317.972290,551.317139 
	C317.332123,551.351868 316.599915,551.078613 315.740479,550.511047 
	C316.368927,550.480896 317.124573,550.744995 317.972290,551.317139 
z"/>
<path fill="#89573F" opacity="1.000000" stroke="none" 
	d="
M330.952515,552.366577 
	C331.615448,552.477051 332.273773,552.926880 332.951782,553.710327 
	C332.296967,553.597961 331.622437,553.151917 330.952515,552.366577 
z"/>
<path fill="#E9E7E5" opacity="1.000000" stroke="none" 
	d="
M246.837860,554.773193 
	C246.504044,555.302429 246.028366,555.601562 245.270020,555.801147 
	C245.556900,555.315430 246.126465,554.929321 246.837860,554.773193 
z"/>
<path fill="#E9E7E5" opacity="1.000000" stroke="none" 
	d="
M240.792542,556.673096 
	C240.486496,557.220215 240.029175,557.550964 239.279938,557.797852 
	C239.539108,557.294922 240.090195,556.875854 240.792542,556.673096 
z"/>
<path fill="#E9E7E5" opacity="1.000000" stroke="none" 
	d="
M666.767822,618.207764 
	C666.124084,617.945984 665.553162,617.313110 664.987793,616.351746 
	C665.609070,616.627686 666.224915,617.232239 666.767822,618.207764 
z"/>
<path fill="#E9E7E5" opacity="1.000000" stroke="none" 
	d="
M331.217651,560.840942 
	C330.637177,560.540527 330.294800,560.075378 329.966797,559.308044 
	C330.472656,559.562622 330.964203,560.119446 331.217651,560.840942 
z"/>
<path fill="#E9E7E5" opacity="1.000000" stroke="none" 
	d="
M599.924316,560.393005 
	C599.229675,560.483215 598.451172,560.227051 597.491577,559.705200 
	C598.153870,559.641846 598.997070,559.844299 599.924316,560.393005 
z"/>
<path fill="#89573F" opacity="1.000000" stroke="none" 
	d="
M518.548828,521.405029 
	C518.548462,520.725586 518.847839,519.913696 519.499084,519.041016 
	C519.516785,519.744324 519.182678,520.508423 518.548828,521.405029 
z"/>
<path fill="#E9E7E5" opacity="1.000000" stroke="none" 
	d="
M210.173187,571.214478 
	C209.909988,571.838440 209.281143,572.395813 208.328888,572.957703 
	C208.606186,572.357422 209.206879,571.752625 210.173187,571.214478 
z"/>
<path fill="#E9E7E5" opacity="1.000000" stroke="none" 
	d="
M812.799988,468.165894 
	C812.922058,468.657715 812.783386,469.316742 812.365112,470.026062 
	C812.236816,469.495239 812.388000,468.914154 812.799988,468.165894 
z"/>
<path fill="#E9E7E5" opacity="1.000000" stroke="none" 
	d="
M630.944763,578.567627 
	C630.284790,578.531250 629.580078,578.155273 628.768555,577.479736 
	C629.407776,577.529541 630.153931,577.878845 630.944763,578.567627 
z"/>
<path fill="#E9E7E5" opacity="1.000000" stroke="none" 
	d="
M640.926941,586.727478 
	C640.267639,586.634766 639.589355,586.193604 638.836060,585.441895 
	C639.476624,585.547241 640.192261,585.963135 640.926941,586.727478 
z"/>
<path fill="#E9E7E5" opacity="1.000000" stroke="none" 
	d="
M652.889038,598.886292 
	C652.246765,598.712708 651.623474,598.192444 650.983765,597.353027 
	C651.614258,597.535767 652.261169,598.037720 652.889038,598.886292 
z"/>
<path fill="#E9E7E5" opacity="1.000000" stroke="none" 
	d="
M174.686813,604.074463 
	C174.646896,604.760132 174.243561,605.483948 173.544006,606.344727 
	C173.606323,605.691956 173.964859,604.902222 174.686813,604.074463 
z"/>
<path fill="#F99204" opacity="1.000000" stroke="none" 
	d="
M331.082733,577.112061 
	C334.936249,579.439453 338.862427,582.129822 342.534760,585.130920 
	C364.527344,603.103333 389.443665,613.080872 418.540588,613.099182 
	C418.999451,648.702820 418.996429,684.235718 418.991516,720.204956 
	C404.839111,720.745483 390.688782,720.888611 376.538086,720.942932 
	C363.044128,720.994812 349.547974,720.830750 336.056824,721.032471 
	C332.231964,721.089661 330.883820,720.158752 330.897980,716.057617 
	C331.057312,669.911682 331.021484,623.765015 331.082733,577.112061 
z"/>
<path fill="#C6C6C6" opacity="1.000000" stroke="none" 
	d="
M511.384949,749.262329 
	C530.460388,737.887512 551.005127,745.925720 556.614319,766.607239 
	C559.708618,778.015991 551.904968,793.175781 540.310181,798.280273 
	C527.632141,803.861694 512.244507,799.882874 505.162018,789.192017 
	C496.875031,776.683044 498.203156,762.248535 508.596191,751.925720 
	C509.422150,751.105408 510.277008,750.314148 511.384949,749.262329 
M535.184875,788.927185 
	C537.703491,787.105957 540.777466,785.723511 542.631409,783.377075 
	C547.269958,777.506409 547.481018,770.592590 544.290649,764.155701 
	C541.138306,757.795593 535.558472,755.070435 528.105835,754.791199 
	C520.669006,754.512695 515.473816,758.021423 512.646606,763.590454 
	C509.672791,769.448242 509.397308,776.331238 513.670654,782.471619 
	C518.602417,789.558044 525.005981,791.730286 535.184875,788.927185 
z"/>
<path fill="#C6C6C6" opacity="1.000000" stroke="none" 
	d="
M329.365570,793.365173 
	C317.075623,804.403076 300.280396,803.344727 288.595337,791.027771 
	C279.039062,780.954712 279.746735,763.013245 289.858459,752.577454 
	C298.339966,743.824036 308.534790,741.916992 319.569763,745.521545 
	C331.307526,749.355774 337.727509,758.331116 338.746643,770.428650 
	C339.484009,779.181274 336.542877,787.122437 329.365570,793.365173 
M324.017975,760.559448 
	C317.458252,752.407043 300.716003,752.167603 294.426025,763.758789 
	C290.293274,771.374512 291.867310,780.602905 299.324371,786.794739 
	C304.991486,791.500366 315.785675,790.903625 321.497833,786.118103 
	C328.407257,780.329590 330.871887,770.983765 324.017975,760.559448 
z"/>
<path fill="#834C30" opacity="1.000000" stroke="none" 
	d="
M498.393036,404.336578 
	C499.629486,413.821960 499.593079,413.557861 490.020538,414.876923 
	C477.027588,416.667328 464.093231,418.887177 451.143005,420.980438 
	C448.400696,421.423706 445.521667,422.238617 445.376129,418.024658 
	C445.262238,414.728790 443.049377,410.611847 449.288879,409.861084 
	C458.512360,408.751282 467.657532,406.990173 477.213989,405.254639 
	C484.376526,404.749573 491.161041,404.496185 498.393036,404.336578 
z"/>
<path fill="#834C30" opacity="1.000000" stroke="none" 
	d="
M356.080078,405.020782 
	C364.261169,406.398438 372.032959,408.171387 379.904449,409.082825 
	C385.080994,409.682190 384.096680,412.837585 383.720886,415.870300 
	C383.357849,418.799866 382.770111,421.140533 378.412109,420.358002 
	C363.208191,417.628021 347.931793,415.287354 332.654083,412.990387 
	C326.955994,412.133698 329.860321,408.066254 329.408569,404.854614 
	C338.218109,404.659088 346.965607,404.854614 356.080078,405.020782 
z"/>
<path fill="#89573F" opacity="1.000000" stroke="none" 
	d="
M450.775757,498.087952 
	C453.591278,502.277527 455.835846,506.464691 458.731293,510.138885 
	C467.238464,520.933960 476.009064,531.521362 484.655518,542.207092 
	C485.128540,542.791687 485.410767,543.530579 485.199280,545.038269 
	C481.793793,543.345947 478.295532,541.816101 474.998138,539.934265 
	C456.606354,529.438171 438.135498,519.070068 419.973969,508.187103 
	C413.748413,504.456573 409.195282,504.261993 402.597015,508.296661 
	C384.540314,519.337891 365.730011,529.145081 347.245178,539.489319 
	C344.114136,541.241516 341.117523,543.233887 338.058807,545.115295 
	C337.585297,544.651917 337.111786,544.188599 336.638306,543.725220 
	C348.103088,529.582092 359.567902,515.438965 371.534058,500.677399 
	C363.250977,500.677399 355.946869,500.677399 348.343292,500.397766 
	C354.765839,499.466400 361.494476,498.874359 368.205627,498.125153 
	C370.125183,497.910858 372.892883,497.873932 373.736298,496.675293 
	C378.344482,490.126282 385.535706,491.470978 391.831665,490.156555 
	C407.746124,486.834137 423.525177,489.197693 439.381287,491.031342 
	C444.590332,491.633728 446.540405,496.052063 450.775757,498.087952 
z"/>
<path fill="#4F4D4B" opacity="1.000000" stroke="none" 
	d="
M348.178406,438.355408 
	C347.232666,431.520935 349.395416,426.446136 354.974487,423.054901 
	C359.471771,420.321167 364.191986,420.359131 368.797760,422.761719 
	C374.556244,425.765564 377.084930,431.517609 375.906647,438.427246 
	C375.005341,443.712708 370.036346,448.315399 364.218903,449.253540 
	C358.154602,450.231445 352.557434,447.463257 349.614990,441.976013 
	C349.067261,440.954590 348.695282,439.838867 348.178406,438.355408 
z"/>
<path fill="#4F4D4B" opacity="1.000000" stroke="none" 
	d="
M470.013550,421.130249 
	C478.467957,422.012299 483.698975,427.038849 484.091766,434.261139 
	C484.484314,441.478973 480.165192,447.443451 473.416443,449.003174 
	C466.290253,450.650116 459.620789,447.252106 456.820740,440.547913 
	C453.030518,431.472870 459.079773,422.282196 470.013550,421.130249 
z"/>
<path fill="#89573F" opacity="1.000000" stroke="none" 
	d="
M516.635254,498.430847 
	C514.015442,499.378601 510.999420,500.635284 507.911957,500.846283 
	C503.182739,501.169495 498.404236,500.772217 493.346375,500.402283 
	C500.766449,499.506348 508.486786,498.888855 516.635254,498.430847 
z"/>
<path fill="#89573F" opacity="1.000000" stroke="none" 
	d="
M330.659302,499.843445 
	C325.595215,500.344849 320.232025,500.757782 314.873871,500.700378 
	C312.334137,500.673157 309.804077,499.747284 307.103882,498.918091 
	C314.746155,498.925781 322.554199,499.243927 330.659302,499.843445 
z"/>
<path fill="#89573F" opacity="1.000000" stroke="none" 
	d="
M475.660767,499.837952 
	C468.720856,499.801971 461.482300,499.488495 454.091492,498.857727 
	C461.080170,498.880402 468.221130,499.220398 475.660767,499.837952 
z"/>
<path fill="#89573F" opacity="1.000000" stroke="none" 
	d="
M367.959717,573.233398 
	C359.975677,569.671631 351.886749,565.803467 343.638733,561.627136 
	C349.109436,563.939941 354.749268,566.539551 360.364380,569.191528 
	C362.886658,570.382751 365.359528,571.678650 367.959717,573.233398 
z"/>
<path fill="#89573F" opacity="1.000000" stroke="none" 
	d="
M477.963867,562.154785 
	C470.784149,566.042480 463.217010,569.888000 455.292908,573.643311 
	C458.037109,571.843750 461.087769,570.033508 464.251709,568.449585 
	C468.648773,566.248352 473.130798,564.216858 477.963867,562.154785 
z"/>
<path fill="#89573F" opacity="1.000000" stroke="none" 
	d="
M387.936584,578.305908 
	C384.195679,577.890137 380.340454,577.144287 376.282745,576.080688 
	C379.994232,576.500610 383.908264,577.238220 387.936584,578.305908 
z"/>
<path fill="#89573F" opacity="1.000000" stroke="none" 
	d="
M446.659607,575.527100 
	C443.192505,576.792786 439.467896,577.822937 435.345459,578.742310 
	C438.765778,577.518188 442.583954,576.404846 446.659607,575.527100 
z"/>
<path fill="#89573F" opacity="1.000000" stroke="none" 
	d="
M401.912231,580.109985 
	C398.561646,580.101807 395.059601,579.787170 391.292603,579.197754 
	C394.605347,579.216492 398.183075,579.510010 401.912231,580.109985 
z"/>
<path fill="#89573F" opacity="1.000000" stroke="none" 
	d="
M431.699493,578.641602 
	C428.561737,579.519470 425.154785,580.124939 421.341675,580.571045 
	C424.433777,579.730774 427.932068,579.049988 431.699493,578.641602 
z"/>
<path fill="#89573F" opacity="1.000000" stroke="none" 
	d="
M452.804504,573.713318 
	C451.833221,574.507080 450.686615,575.067932 449.232422,575.487915 
	C450.159607,574.724854 451.394348,574.102600 452.804504,573.713318 
z"/>
<path fill="#89573F" opacity="1.000000" stroke="none" 
	d="
M373.965668,575.092407 
	C372.841400,575.069641 371.608490,574.789124 370.197693,574.227295 
	C371.298859,574.242188 372.577942,574.538330 373.965668,575.092407 
z"/>
<path fill="#89573F" opacity="1.000000" stroke="none" 
	d="
M484.398010,557.919922 
	C484.029572,558.592773 483.331573,559.289185 482.317108,559.989197 
	C482.689911,559.309692 483.379150,558.626648 484.398010,557.919922 
z"/>
<path fill="#B8B8B8" opacity="1.000000" stroke="none" 
	d="
M534.829712,789.083679 
	C525.005981,791.730286 518.602417,789.558044 513.670654,782.471619 
	C509.397308,776.331238 509.672791,769.448242 512.646606,763.590454 
	C515.473816,758.021423 520.669006,754.512695 528.105835,754.791199 
	C535.558472,755.070435 541.138306,757.795593 544.290649,764.155701 
	C547.481018,770.592590 547.269958,777.506409 542.631409,783.377075 
	C540.777466,785.723511 537.703491,787.105957 534.829712,789.083679 
z"/>
<path fill="#B8B8B8" opacity="1.000000" stroke="none" 
	d="
M324.255096,760.848022 
	C330.871887,770.983765 328.407257,780.329590 321.497833,786.118103 
	C315.785675,790.903625 304.991486,791.500366 299.324371,786.794739 
	C291.867310,780.602905 290.293274,771.374512 294.426025,763.758789 
	C300.716003,752.167603 317.458252,752.407043 324.255096,760.848022 
z"/>
</svg>
